<?xml version="1.0" encoding="UTF-8" standalone="no"?>
<!DOCTYPE svg PUBLIC "-//W3C//DTD SVG 1.1//EN"
 "http://www.w3.org/Graphics/SVG/1.1/DTD/svg11.dtd">
<!-- Generated by graphviz version 2.47.1 (0)
 -->
<!-- Title: structs Pages: 1 -->
<svg width="1233pt" height="1134pt"
 viewBox="0.00 0.00 1233.00 1134.00" xmlns="http://www.w3.org/2000/svg" xmlns:xlink="http://www.w3.org/1999/xlink">
<g id="graph0" class="graph" transform="scale(1 1) rotate(0) translate(4 1130)">
<title>structs</title>
<polygon fill="white" stroke="transparent" points="-4,4 -4,-1130 1229,-1130 1229,4 -4,4"/>
<!-- 0x558883bd16e0 -->
<g id="node1" class="node">
<title>0x558883bd16e0</title>
<polygon fill="#ffffff" stroke="#000000" points="546.5,-1079.5 546.5,-1125.5 689.5,-1125.5 689.5,-1079.5 546.5,-1079.5"/>
<text text-anchor="middle" x="618" y="-1110.3" font-family="Times,serif" font-size="14.00" fill="#000000">FDECL (non&#45;void)</text>
<polyline fill="none" stroke="#000000" points="546.5,-1102.5 689.5,-1102.5 "/>
<text text-anchor="middle" x="618" y="-1087.3" font-family="Times,serif" font-size="14.00" fill="#000000">FDECL_TYPE</text>
</g>
<!-- 0x558883bd1be0 -->
<g id="node2" class="node">
<title>0x558883bd1be0</title>
<polygon fill="#ffffff" stroke="#000000" points="434.5,-996.5 434.5,-1042.5 577.5,-1042.5 577.5,-996.5 434.5,-996.5"/>
<text text-anchor="middle" x="506" y="-1027.3" font-family="Times,serif" font-size="14.00" fill="#000000">FDECL (non&#45;void)</text>
<polyline fill="none" stroke="#000000" points="434.5,-1019.5 577.5,-1019.5 "/>
<text text-anchor="middle" x="506" y="-1004.3" font-family="Times,serif" font-size="14.00" fill="#000000">FDECL_TYPE</text>
</g>
<!-- 0x558883bd16e0&#45;&gt;0x558883bd1be0 -->
<g id="edge1" class="edge">
<title>0x558883bd16e0:sw&#45;&gt;0x558883bd1be0</title>
<path fill="none" stroke="black" d="M546,-1079C537.74,-1070.74 530.11,-1060.56 523.77,-1051.02"/>
<polygon fill="black" stroke="black" points="526.67,-1049.06 518.33,-1042.52 520.77,-1052.83 526.67,-1049.06"/>
</g>
<!-- 0x558883bd1710 -->
<g id="node29" class="node">
<title>0x558883bd1710</title>
<polygon fill="#fff9fa" stroke="#f06292" points="712,-996.5 712,-1042.5 790,-1042.5 790,-996.5 712,-996.5"/>
<text text-anchor="middle" x="751" y="-1027.3" font-family="Times,serif" font-size="14.00" fill="#f06292">fact</text>
<polyline fill="none" stroke="#f06292" points="712,-1019.5 790,-1019.5 "/>
<text text-anchor="middle" x="751" y="-1004.3" font-family="Times,serif" font-size="14.00" fill="#f06292">ID_TYPE</text>
</g>
<!-- 0x558883bd16e0&#45;&gt;0x558883bd1710 -->
<g id="edge28" class="edge">
<title>0x558883bd16e0:se&#45;&gt;0x558883bd1710</title>
<path fill="none" stroke="black" d="M690,-1079C699.58,-1069.42 710.18,-1059.14 719.82,-1049.92"/>
<polygon fill="black" stroke="black" points="722.49,-1052.21 727.31,-1042.77 717.66,-1047.14 722.49,-1052.21"/>
</g>
<!-- 0x558883bd1c10 -->
<g id="node3" class="node">
<title>0x558883bd1c10</title>
<polygon fill="#fff9fa" stroke="#f06292" points="477,-913.5 477,-959.5 555,-959.5 555,-913.5 477,-913.5"/>
<text text-anchor="middle" x="516" y="-944.3" font-family="Times,serif" font-size="14.00" fill="#f06292">love</text>
<polyline fill="none" stroke="#f06292" points="477,-936.5 555,-936.5 "/>
<text text-anchor="middle" x="516" y="-921.3" font-family="Times,serif" font-size="14.00" fill="#f06292">ID_TYPE</text>
</g>
<!-- 0x558883bd1be0&#45;&gt;0x558883bd1c10 -->
<g id="edge2" class="edge">
<title>0x558883bd1be0:se&#45;&gt;0x558883bd1c10</title>
<path fill="none" stroke="black" d="M578,-996C589.65,-984.35 579.43,-971.76 564.16,-961.26"/>
<polygon fill="black" stroke="black" points="565.6,-958.02 555.27,-955.66 561.87,-963.95 565.6,-958.02"/>
</g>
<!-- 0x558883bd1d50 -->
<g id="node4" class="node">
<title>0x558883bd1d50</title>
<polygon fill="#ffffff" stroke="#000000" points="379.5,-830.5 379.5,-876.5 492.5,-876.5 492.5,-830.5 379.5,-830.5"/>
<text text-anchor="middle" x="436" y="-861.3" font-family="Times,serif" font-size="14.00" fill="#000000">Block</text>
<polyline fill="none" stroke="#000000" points="379.5,-853.5 492.5,-853.5 "/>
<text text-anchor="middle" x="436" y="-838.3" font-family="Times,serif" font-size="14.00" fill="#000000">BLOCK_TYPE</text>
</g>
<!-- 0x558883bd1c10&#45;&gt;0x558883bd1d50 -->
<g id="edge3" class="edge">
<title>0x558883bd1c10:sw&#45;&gt;0x558883bd1d50</title>
<path fill="none" stroke="black" d="M477,-913C468.74,-904.74 461.01,-894.64 454.54,-885.17"/>
<polygon fill="black" stroke="black" points="457.39,-883.15 448.97,-876.73 451.55,-887 457.39,-883.15"/>
</g>
<!-- 0x558883bd1d20 -->
<g id="node5" class="node">
<title>0x558883bd1d20</title>
<polygon fill="#ffffff" stroke="#000000" points="252,-747.5 252,-793.5 406,-793.5 406,-747.5 252,-747.5"/>
<text text-anchor="middle" x="329" y="-778.3" font-family="Times,serif" font-size="14.00" fill="#000000">S</text>
<polyline fill="none" stroke="#000000" points="252,-770.5 406,-770.5 "/>
<text text-anchor="middle" x="329" y="-755.3" font-family="Times,serif" font-size="14.00" fill="#000000">STATEMENT_TYPE</text>
</g>
<!-- 0x558883bd1d50&#45;&gt;0x558883bd1d20 -->
<g id="edge4" class="edge">
<title>0x558883bd1d50:se&#45;&gt;0x558883bd1d20</title>
<path fill="none" stroke="black" d="M493,-830C523.23,-799.77 469.99,-785.08 416.29,-778"/>
<polygon fill="black" stroke="black" points="416.63,-774.51 406.28,-776.76 415.77,-781.46 416.63,-774.51"/>
</g>
<!-- 0x558883bd1cf0 -->
<g id="node6" class="node">
<title>0x558883bd1cf0</title>
<polygon fill="#ffffff" stroke="#000000" points="48.5,-664.5 48.5,-710.5 161.5,-710.5 161.5,-664.5 48.5,-664.5"/>
<text text-anchor="middle" x="105" y="-695.3" font-family="Times,serif" font-size="14.00" fill="#000000">=</text>
<polyline fill="none" stroke="#000000" points="48.5,-687.5 161.5,-687.5 "/>
<text text-anchor="middle" x="105" y="-672.3" font-family="Times,serif" font-size="14.00" fill="#000000">VDECL_TYPE</text>
</g>
<!-- 0x558883bd1d20&#45;&gt;0x558883bd1cf0 -->
<g id="edge5" class="edge">
<title>0x558883bd1d20:sw&#45;&gt;0x558883bd1cf0</title>
<path fill="none" stroke="black" d="M252,-747C230.2,-725.2 199.25,-711.26 171.36,-702.5"/>
<polygon fill="black" stroke="black" points="172.23,-699.1 161.65,-699.6 170.24,-705.81 172.23,-699.1"/>
</g>
<!-- 0x558883bd1e40 -->
<g id="node9" class="node">
<title>0x558883bd1e40</title>
<polygon fill="#ffffff" stroke="#000000" points="329,-664.5 329,-710.5 483,-710.5 483,-664.5 329,-664.5"/>
<text text-anchor="middle" x="406" y="-695.3" font-family="Times,serif" font-size="14.00" fill="#000000">S</text>
<polyline fill="none" stroke="#000000" points="329,-687.5 483,-687.5 "/>
<text text-anchor="middle" x="406" y="-672.3" font-family="Times,serif" font-size="14.00" fill="#000000">STATEMENT_TYPE</text>
</g>
<!-- 0x558883bd1d20&#45;&gt;0x558883bd1e40 -->
<g id="edge8" class="edge">
<title>0x558883bd1d20:se&#45;&gt;0x558883bd1e40</title>
<path fill="none" stroke="black" d="M406,-747C412.8,-740.2 414.57,-730.42 414.1,-720.8"/>
<polygon fill="black" stroke="black" points="417.54,-720.06 412.84,-710.57 410.59,-720.92 417.54,-720.06"/>
</g>
<!-- 0x558883bd1c90 -->
<g id="node7" class="node">
<title>0x558883bd1c90</title>
<polygon fill="#fff9fa" stroke="#f06292" points="0,-581.5 0,-627.5 78,-627.5 78,-581.5 0,-581.5"/>
<text text-anchor="middle" x="39" y="-612.3" font-family="Times,serif" font-size="14.00" fill="#f06292">n</text>
<polyline fill="none" stroke="#f06292" points="0,-604.5 78,-604.5 "/>
<text text-anchor="middle" x="39" y="-589.3" font-family="Times,serif" font-size="14.00" fill="#f06292">ID_TYPE</text>
</g>
<!-- 0x558883bd1cf0&#45;&gt;0x558883bd1c90 -->
<g id="edge6" class="edge">
<title>0x558883bd1cf0:sw&#45;&gt;0x558883bd1c90</title>
<path fill="none" stroke="black" d="M48,-664C41.17,-657.17 38.14,-647.47 37.05,-637.92"/>
<polygon fill="black" stroke="black" points="40.53,-637.58 36.52,-627.77 33.54,-637.94 40.53,-637.58"/>
</g>
<!-- 0x558883bd1cc0 -->
<g id="node8" class="node">
<title>0x558883bd1cc0</title>
<polygon fill="#fffaef" stroke="#d2691e" points="96.5,-581.5 96.5,-627.5 227.5,-627.5 227.5,-581.5 96.5,-581.5"/>
<text text-anchor="middle" x="162" y="-612.3" font-family="Times,serif" font-size="14.00" fill="#ff7f50">0</text>
<polyline fill="none" stroke="#d2691e" points="96.5,-604.5 227.5,-604.5 "/>
<text text-anchor="middle" x="162" y="-589.3" font-family="Times,serif" font-size="14.00" fill="#ff7f50">NUMBER_TYPE</text>
</g>
<!-- 0x558883bd1cf0&#45;&gt;0x558883bd1cc0 -->
<g id="edge7" class="edge">
<title>0x558883bd1cf0:se&#45;&gt;0x558883bd1cc0</title>
<path fill="none" stroke="black" d="M162,-664C168.8,-657.2 170.57,-647.42 170.1,-637.8"/>
<polygon fill="black" stroke="black" points="173.54,-637.06 168.84,-627.57 166.59,-637.92 173.54,-637.06"/>
</g>
<!-- 0x558883bd1e10 -->
<g id="node10" class="node">
<title>0x558883bd1e10</title>
<polygon fill="#e1e1ea" stroke="#52527a" points="245.5,-581.5 245.5,-627.5 364.5,-627.5 364.5,-581.5 245.5,-581.5"/>
<text text-anchor="middle" x="305" y="-612.3" font-family="Times,serif" font-size="14.00" fill="#52527a">=</text>
<polyline fill="none" stroke="#52527a" points="245.5,-604.5 364.5,-604.5 "/>
<text text-anchor="middle" x="305" y="-589.3" font-family="Times,serif" font-size="14.00" fill="#52527a">ASSIGN_TYPE</text>
</g>
<!-- 0x558883bd1e40&#45;&gt;0x558883bd1e10 -->
<g id="edge9" class="edge">
<title>0x558883bd1e40:sw&#45;&gt;0x558883bd1e10</title>
<path fill="none" stroke="black" d="M329,-664C321.68,-656.68 316.5,-646.82 312.87,-637.29"/>
<polygon fill="black" stroke="black" points="316.12,-635.96 309.63,-627.58 309.48,-638.18 316.12,-635.96"/>
</g>
<!-- 0x558883bd1f90 -->
<g id="node14" class="node">
<title>0x558883bd1f90</title>
<polygon fill="#ffffff" stroke="#000000" points="430,-581.5 430,-627.5 584,-627.5 584,-581.5 430,-581.5"/>
<text text-anchor="middle" x="507" y="-612.3" font-family="Times,serif" font-size="14.00" fill="#000000">S</text>
<polyline fill="none" stroke="#000000" points="430,-604.5 584,-604.5 "/>
<text text-anchor="middle" x="507" y="-589.3" font-family="Times,serif" font-size="14.00" fill="#000000">STATEMENT_TYPE</text>
</g>
<!-- 0x558883bd1e40&#45;&gt;0x558883bd1f90 -->
<g id="edge13" class="edge">
<title>0x558883bd1e40:se&#45;&gt;0x558883bd1f90</title>
<path fill="none" stroke="black" d="M483,-664C490.32,-656.68 495.5,-646.82 499.13,-637.29"/>
<polygon fill="black" stroke="black" points="502.52,-638.18 502.37,-627.58 495.88,-635.96 502.52,-638.18"/>
</g>
<!-- 0x558883bd1d80 -->
<g id="node11" class="node">
<title>0x558883bd1d80</title>
<polygon fill="#fff9fa" stroke="#f06292" points="159,-498.5 159,-544.5 237,-544.5 237,-498.5 159,-498.5"/>
<text text-anchor="middle" x="198" y="-529.3" font-family="Times,serif" font-size="14.00" fill="#f06292">n</text>
<polyline fill="none" stroke="#f06292" points="159,-521.5 237,-521.5 "/>
<text text-anchor="middle" x="198" y="-506.3" font-family="Times,serif" font-size="14.00" fill="#f06292">ID_TYPE</text>
</g>
<!-- 0x558883bd1e10&#45;&gt;0x558883bd1d80 -->
<g id="edge10" class="edge">
<title>0x558883bd1e10:sw&#45;&gt;0x558883bd1d80</title>
<path fill="none" stroke="black" d="M245,-581C236.31,-572.31 227.64,-562.08 220.15,-552.62"/>
<polygon fill="black" stroke="black" points="222.81,-550.33 213.91,-544.57 217.27,-554.62 222.81,-550.33"/>
</g>
<!-- 0x558883bd1de0 -->
<g id="node12" class="node">
<title>0x558883bd1de0</title>
<polygon fill="#e1e1ea" stroke="#52527a" points="255,-498.5 255,-544.5 355,-544.5 355,-498.5 255,-498.5"/>
<text text-anchor="middle" x="305" y="-529.3" font-family="Times,serif" font-size="14.00" fill="#52527a">call</text>
<polyline fill="none" stroke="#52527a" points="255,-521.5 355,-521.5 "/>
<text text-anchor="middle" x="305" y="-506.3" font-family="Times,serif" font-size="14.00" fill="#52527a">CALL_TYPE</text>
</g>
<!-- 0x558883bd1e10&#45;&gt;0x558883bd1de0 -->
<g id="edge11" class="edge">
<title>0x558883bd1e10:se&#45;&gt;0x558883bd1de0</title>
<path fill="none" stroke="black" d="M365,-581C374.96,-571.04 368.81,-560.25 357.31,-550.68"/>
<polygon fill="black" stroke="black" points="359.21,-547.73 349.09,-544.59 355.04,-553.36 359.21,-547.73"/>
</g>
<!-- 0x558883bd1db0 -->
<g id="node13" class="node">
<title>0x558883bd1db0</title>
<polygon fill="#fff9fa" stroke="#f06292" points="216,-415.5 216,-461.5 294,-461.5 294,-415.5 216,-415.5"/>
<text text-anchor="middle" x="255" y="-446.3" font-family="Times,serif" font-size="14.00" fill="#f06292">accio</text>
<polyline fill="none" stroke="#f06292" points="216,-438.5 294,-438.5 "/>
<text text-anchor="middle" x="255" y="-423.3" font-family="Times,serif" font-size="14.00" fill="#f06292">ID_TYPE</text>
</g>
<!-- 0x558883bd1de0&#45;&gt;0x558883bd1db0 -->
<g id="edge12" class="edge">
<title>0x558883bd1de0:sw&#45;&gt;0x558883bd1db0</title>
<path fill="none" stroke="black" d="M255,-498C248.2,-491.2 246.43,-481.42 246.9,-471.8"/>
<polygon fill="black" stroke="black" points="250.41,-471.92 248.16,-461.57 243.46,-471.06 250.41,-471.92"/>
</g>
<!-- 0x558883bd1f60 -->
<g id="node15" class="node">
<title>0x558883bd1f60</title>
<polygon fill="#ffffff" stroke="#000000" points="373.5,-498.5 373.5,-544.5 486.5,-544.5 486.5,-498.5 373.5,-498.5"/>
<text text-anchor="middle" x="430" y="-529.3" font-family="Times,serif" font-size="14.00" fill="#000000">=</text>
<polyline fill="none" stroke="#000000" points="373.5,-521.5 486.5,-521.5 "/>
<text text-anchor="middle" x="430" y="-506.3" font-family="Times,serif" font-size="14.00" fill="#000000">VDECL_TYPE</text>
</g>
<!-- 0x558883bd1f90&#45;&gt;0x558883bd1f60 -->
<g id="edge14" class="edge">
<title>0x558883bd1f90:sw&#45;&gt;0x558883bd1f60</title>
<path fill="none" stroke="black" d="M430,-581C423.2,-574.2 421.43,-564.42 421.9,-554.8"/>
<polygon fill="black" stroke="black" points="425.41,-554.92 423.16,-544.57 418.46,-554.06 425.41,-554.92"/>
</g>
<!-- 0x558883bd2080 -->
<g id="node21" class="node">
<title>0x558883bd2080</title>
<polygon fill="#ffffff" stroke="#000000" points="589,-498.5 589,-544.5 743,-544.5 743,-498.5 589,-498.5"/>
<text text-anchor="middle" x="666" y="-529.3" font-family="Times,serif" font-size="14.00" fill="#000000">S</text>
<polyline fill="none" stroke="#000000" points="589,-521.5 743,-521.5 "/>
<text text-anchor="middle" x="666" y="-506.3" font-family="Times,serif" font-size="14.00" fill="#000000">STATEMENT_TYPE</text>
</g>
<!-- 0x558883bd1f90&#45;&gt;0x558883bd2080 -->
<g id="edge20" class="edge">
<title>0x558883bd1f90:se&#45;&gt;0x558883bd2080</title>
<path fill="none" stroke="black" d="M584,-581C595.16,-569.84 608.64,-559.28 621.42,-550.28"/>
<polygon fill="black" stroke="black" points="623.42,-553.15 629.68,-544.61 619.46,-547.38 623.42,-553.15"/>
</g>
<!-- 0x558883bd1e70 -->
<g id="node16" class="node">
<title>0x558883bd1e70</title>
<polygon fill="#fff9fa" stroke="#f06292" points="322,-415.5 322,-461.5 400,-461.5 400,-415.5 322,-415.5"/>
<text text-anchor="middle" x="361" y="-446.3" font-family="Times,serif" font-size="14.00" fill="#f06292">result</text>
<polyline fill="none" stroke="#f06292" points="322,-438.5 400,-438.5 "/>
<text text-anchor="middle" x="361" y="-423.3" font-family="Times,serif" font-size="14.00" fill="#f06292">ID_TYPE</text>
</g>
<!-- 0x558883bd1f60&#45;&gt;0x558883bd1e70 -->
<g id="edge15" class="edge">
<title>0x558883bd1f60:sw&#45;&gt;0x558883bd1e70</title>
<path fill="none" stroke="black" d="M373,-498C366.11,-491.11 362.66,-481.39 361.06,-471.85"/>
<polygon fill="black" stroke="black" points="364.51,-471.28 359.96,-461.71 357.55,-472.03 364.51,-471.28"/>
</g>
<!-- 0x558883bd1f30 -->
<g id="node17" class="node">
<title>0x558883bd1f30</title>
<polygon fill="#e1e1ea" stroke="#52527a" points="418,-415.5 418,-461.5 518,-461.5 518,-415.5 418,-415.5"/>
<text text-anchor="middle" x="468" y="-446.3" font-family="Times,serif" font-size="14.00" fill="#52527a">call</text>
<polyline fill="none" stroke="#52527a" points="418,-438.5 518,-438.5 "/>
<text text-anchor="middle" x="468" y="-423.3" font-family="Times,serif" font-size="14.00" fill="#52527a">CALL_TYPE</text>
</g>
<!-- 0x558883bd1f60&#45;&gt;0x558883bd1f30 -->
<g id="edge16" class="edge">
<title>0x558883bd1f60:se&#45;&gt;0x558883bd1f30</title>
<path fill="none" stroke="black" d="M487,-498C494.32,-490.68 493.37,-480.5 489.36,-470.69"/>
<polygon fill="black" stroke="black" points="492.36,-468.87 484.75,-461.5 486.1,-472.01 492.36,-468.87"/>
</g>
<!-- 0x558883bd1ea0 -->
<g id="node18" class="node">
<title>0x558883bd1ea0</title>
<polygon fill="#fff9fa" stroke="#f06292" points="230,-332.5 230,-378.5 308,-378.5 308,-332.5 230,-332.5"/>
<text text-anchor="middle" x="269" y="-363.3" font-family="Times,serif" font-size="14.00" fill="#f06292">fact</text>
<polyline fill="none" stroke="#f06292" points="230,-355.5 308,-355.5 "/>
<text text-anchor="middle" x="269" y="-340.3" font-family="Times,serif" font-size="14.00" fill="#f06292">ID_TYPE</text>
</g>
<!-- 0x558883bd1f30&#45;&gt;0x558883bd1ea0 -->
<g id="edge17" class="edge">
<title>0x558883bd1f30:sw&#45;&gt;0x558883bd1ea0</title>
<path fill="none" stroke="black" d="M418,-415C386.41,-383.41 364.01,-395.35 317.74,-378.91"/>
<polygon fill="black" stroke="black" points="318.75,-375.55 308.16,-375.23 316.23,-382.09 318.75,-375.55"/>
</g>
<!-- 0x558883bd1f00 -->
<g id="node19" class="node">
<title>0x558883bd1f00</title>
<polygon fill="#e1e1ea" stroke="#52527a" points="326,-332.5 326,-378.5 468,-378.5 468,-332.5 326,-332.5"/>
<text text-anchor="middle" x="397" y="-363.3" font-family="Times,serif" font-size="14.00" fill="#52527a">param</text>
<polyline fill="none" stroke="#52527a" points="326,-355.5 468,-355.5 "/>
<text text-anchor="middle" x="397" y="-340.3" font-family="Times,serif" font-size="14.00" fill="#52527a">EXPR_LIST_TYPE</text>
</g>
<!-- 0x558883bd1f30&#45;&gt;0x558883bd1f00 -->
<g id="edge18" class="edge">
<title>0x558883bd1f30:se&#45;&gt;0x558883bd1f00</title>
<path fill="none" stroke="black" d="M518,-415C527.3,-405.7 504.94,-393.24 477,-382.21"/>
<polygon fill="black" stroke="black" points="477.93,-378.83 467.34,-378.54 475.44,-385.37 477.93,-378.83"/>
</g>
<!-- 0x558883bd1ed0 -->
<g id="node20" class="node">
<title>0x558883bd1ed0</title>
<polygon fill="#fff9fa" stroke="#f06292" points="287,-249.5 287,-295.5 365,-295.5 365,-249.5 287,-249.5"/>
<text text-anchor="middle" x="326" y="-280.3" font-family="Times,serif" font-size="14.00" fill="#f06292">n</text>
<polyline fill="none" stroke="#f06292" points="287,-272.5 365,-272.5 "/>
<text text-anchor="middle" x="326" y="-257.3" font-family="Times,serif" font-size="14.00" fill="#f06292">ID_TYPE</text>
</g>
<!-- 0x558883bd1f00&#45;&gt;0x558883bd1ed0 -->
<g id="edge19" class="edge">
<title>0x558883bd1f00:sw&#45;&gt;0x558883bd1ed0</title>
<path fill="none" stroke="black" d="M326,-332C319.2,-325.2 317.43,-315.42 317.9,-305.8"/>
<polygon fill="black" stroke="black" points="321.41,-305.92 319.16,-295.57 314.46,-305.06 321.41,-305.92"/>
</g>
<!-- 0x558883bd2050 -->
<g id="node22" class="node">
<title>0x558883bd2050</title>
<polygon fill="#e1e1ea" stroke="#52527a" points="539,-415.5 539,-461.5 639,-461.5 639,-415.5 539,-415.5"/>
<text text-anchor="middle" x="589" y="-446.3" font-family="Times,serif" font-size="14.00" fill="#52527a">call</text>
<polyline fill="none" stroke="#52527a" points="539,-438.5 639,-438.5 "/>
<text text-anchor="middle" x="589" y="-423.3" font-family="Times,serif" font-size="14.00" fill="#52527a">CALL_TYPE</text>
</g>
<!-- 0x558883bd2080&#45;&gt;0x558883bd2050 -->
<g id="edge21" class="edge">
<title>0x558883bd2080:sw&#45;&gt;0x558883bd2050</title>
<path fill="none" stroke="black" d="M589,-498C582.2,-491.2 580.43,-481.42 580.9,-471.8"/>
<polygon fill="black" stroke="black" points="584.41,-471.92 582.16,-461.57 577.46,-471.06 584.41,-471.92"/>
</g>
<!-- 0x558883bd2110 -->
<g id="node26" class="node">
<title>0x558883bd2110</title>
<polygon fill="#ffffff" stroke="#000000" points="675,-415.5 675,-461.5 829,-461.5 829,-415.5 675,-415.5"/>
<text text-anchor="middle" x="752" y="-446.3" font-family="Times,serif" font-size="14.00" fill="#000000">S</text>
<polyline fill="none" stroke="#000000" points="675,-438.5 829,-438.5 "/>
<text text-anchor="middle" x="752" y="-423.3" font-family="Times,serif" font-size="14.00" fill="#000000">STATEMENT_TYPE</text>
</g>
<!-- 0x558883bd2080&#45;&gt;0x558883bd2110 -->
<g id="edge25" class="edge">
<title>0x558883bd2080:se&#45;&gt;0x558883bd2110</title>
<path fill="none" stroke="black" d="M743,-498C749.83,-491.17 752.86,-481.47 753.95,-471.92"/>
<polygon fill="black" stroke="black" points="757.46,-471.94 754.48,-461.77 750.47,-471.58 757.46,-471.94"/>
</g>
<!-- 0x558883bd2020 -->
<g id="node23" class="node">
<title>0x558883bd2020</title>
<polygon fill="#fff9fa" stroke="#f06292" points="486,-332.5 486,-378.5 564,-378.5 564,-332.5 486,-332.5"/>
<text text-anchor="middle" x="525" y="-363.3" font-family="Times,serif" font-size="14.00" fill="#f06292">flagrate</text>
<polyline fill="none" stroke="#f06292" points="486,-355.5 564,-355.5 "/>
<text text-anchor="middle" x="525" y="-340.3" font-family="Times,serif" font-size="14.00" fill="#f06292">ID_TYPE</text>
</g>
<!-- 0x558883bd2050&#45;&gt;0x558883bd2020 -->
<g id="edge22" class="edge">
<title>0x558883bd2050:sw&#45;&gt;0x558883bd2020</title>
<path fill="none" stroke="black" d="M539,-415C532.06,-408.06 528.33,-398.33 526.38,-388.79"/>
<polygon fill="black" stroke="black" points="529.81,-388.05 524.91,-378.66 522.89,-389.06 529.81,-388.05"/>
</g>
<!-- 0x558883bd1ff0 -->
<g id="node24" class="node">
<title>0x558883bd1ff0</title>
<polygon fill="#e1e1ea" stroke="#52527a" points="582,-332.5 582,-378.5 724,-378.5 724,-332.5 582,-332.5"/>
<text text-anchor="middle" x="653" y="-363.3" font-family="Times,serif" font-size="14.00" fill="#52527a">param</text>
<polyline fill="none" stroke="#52527a" points="582,-355.5 724,-355.5 "/>
<text text-anchor="middle" x="653" y="-340.3" font-family="Times,serif" font-size="14.00" fill="#52527a">EXPR_LIST_TYPE</text>
</g>
<!-- 0x558883bd2050&#45;&gt;0x558883bd1ff0 -->
<g id="edge23" class="edge">
<title>0x558883bd2050:se&#45;&gt;0x558883bd1ff0</title>
<path fill="none" stroke="black" d="M639,-415C645.94,-408.06 649.67,-398.33 651.62,-388.79"/>
<polygon fill="black" stroke="black" points="655.11,-389.06 653.09,-378.66 648.19,-388.05 655.11,-389.06"/>
</g>
<!-- 0x558883bd1fc0 -->
<g id="node25" class="node">
<title>0x558883bd1fc0</title>
<polygon fill="#fff9fa" stroke="#f06292" points="543,-249.5 543,-295.5 621,-295.5 621,-249.5 543,-249.5"/>
<text text-anchor="middle" x="582" y="-280.3" font-family="Times,serif" font-size="14.00" fill="#f06292">result</text>
<polyline fill="none" stroke="#f06292" points="543,-272.5 621,-272.5 "/>
<text text-anchor="middle" x="582" y="-257.3" font-family="Times,serif" font-size="14.00" fill="#f06292">ID_TYPE</text>
</g>
<!-- 0x558883bd1ff0&#45;&gt;0x558883bd1fc0 -->
<g id="edge24" class="edge">
<title>0x558883bd1ff0:sw&#45;&gt;0x558883bd1fc0</title>
<path fill="none" stroke="black" d="M582,-332C575.2,-325.2 573.43,-315.42 573.9,-305.8"/>
<polygon fill="black" stroke="black" points="577.41,-305.92 575.16,-295.57 570.46,-305.06 577.41,-305.92"/>
</g>
<!-- 0x558883bd20e0 -->
<g id="node27" class="node">
<title>0x558883bd20e0</title>
<polygon fill="#e1e1ea" stroke="#52527a" points="742.5,-332.5 742.5,-378.5 845.5,-378.5 845.5,-332.5 742.5,-332.5"/>
<text text-anchor="middle" x="794" y="-363.3" font-family="Times,serif" font-size="14.00" fill="#52527a">return</text>
<polyline fill="none" stroke="#52527a" points="742.5,-355.5 845.5,-355.5 "/>
<text text-anchor="middle" x="794" y="-340.3" font-family="Times,serif" font-size="14.00" fill="#52527a">JUMP_TYPE</text>
</g>
<!-- 0x558883bd2110&#45;&gt;0x558883bd20e0 -->
<g id="edge26" class="edge">
<title>0x558883bd2110:sw&#45;&gt;0x558883bd20e0</title>
<path fill="none" stroke="black" d="M675,-415C669.67,-409.67 700.98,-394.46 732.82,-380.89"/>
<polygon fill="black" stroke="black" points="734.37,-384.03 742.23,-376.93 731.66,-377.58 734.37,-384.03"/>
</g>
<!-- 0x558883bd20b0 -->
<g id="node28" class="node">
<title>0x558883bd20b0</title>
<polygon fill="#fffaef" stroke="#d2691e" points="727.5,-249.5 727.5,-295.5 858.5,-295.5 858.5,-249.5 727.5,-249.5"/>
<text text-anchor="middle" x="793" y="-280.3" font-family="Times,serif" font-size="14.00" fill="#ff7f50">0</text>
<polyline fill="none" stroke="#d2691e" points="727.5,-272.5 858.5,-272.5 "/>
<text text-anchor="middle" x="793" y="-257.3" font-family="Times,serif" font-size="14.00" fill="#ff7f50">NUMBER_TYPE</text>
</g>
<!-- 0x558883bd20e0&#45;&gt;0x558883bd20b0 -->
<g id="edge27" class="edge">
<title>0x558883bd20e0:se&#45;&gt;0x558883bd20b0</title>
<path fill="none" stroke="black" d="M846,-332C855.45,-322.55 850.01,-311.81 839.66,-302.14"/>
<polygon fill="black" stroke="black" points="841.76,-299.34 831.83,-295.64 837.29,-304.72 841.76,-299.34"/>
</g>
<!-- 0x558883bd1bb0 -->
<g id="node30" class="node">
<title>0x558883bd1bb0</title>
<polygon fill="#ffffff" stroke="#000000" points="655.5,-913.5 655.5,-959.5 768.5,-959.5 768.5,-913.5 655.5,-913.5"/>
<text text-anchor="middle" x="712" y="-944.3" font-family="Times,serif" font-size="14.00" fill="#000000">Block</text>
<polyline fill="none" stroke="#000000" points="655.5,-936.5 768.5,-936.5 "/>
<text text-anchor="middle" x="712" y="-921.3" font-family="Times,serif" font-size="14.00" fill="#000000">BLOCK_TYPE</text>
</g>
<!-- 0x558883bd1710&#45;&gt;0x558883bd1bb0 -->
<g id="edge29" class="edge">
<title>0x558883bd1710:sw&#45;&gt;0x558883bd1bb0</title>
<path fill="none" stroke="black" d="M712,-996C705.2,-989.2 703.43,-979.42 703.9,-969.8"/>
<polygon fill="black" stroke="black" points="707.41,-969.92 705.16,-959.57 700.46,-969.06 707.41,-969.92"/>
</g>
<!-- 0x558883bd1790 -->
<g id="node52" class="node">
<title>0x558883bd1790</title>
<polygon fill="#fff9fa" stroke="#f06292" points="787,-913.5 787,-959.5 865,-959.5 865,-913.5 787,-913.5"/>
<text text-anchor="middle" x="826" y="-944.3" font-family="Times,serif" font-size="14.00" fill="#f06292">n</text>
<polyline fill="none" stroke="#f06292" points="787,-936.5 865,-936.5 "/>
<text text-anchor="middle" x="826" y="-921.3" font-family="Times,serif" font-size="14.00" fill="#f06292">ID_TYPE</text>
</g>
<!-- 0x558883bd1710&#45;&gt;0x558883bd1790 -->
<g id="edge51" class="edge">
<title>0x558883bd1710:se&#45;&gt;0x558883bd1790</title>
<path fill="none" stroke="black" d="M790,-996C797.92,-988.08 804.88,-978.09 810.51,-968.62"/>
<polygon fill="black" stroke="black" points="813.63,-970.21 815.5,-959.78 807.54,-966.77 813.63,-970.21"/>
</g>
<!-- 0x558883bd1b80 -->
<g id="node31" class="node">
<title>0x558883bd1b80</title>
<polygon fill="#ffffff" stroke="#000000" points="725,-830.5 725,-876.5 879,-876.5 879,-830.5 725,-830.5"/>
<text text-anchor="middle" x="802" y="-861.3" font-family="Times,serif" font-size="14.00" fill="#000000">S</text>
<polyline fill="none" stroke="#000000" points="725,-853.5 879,-853.5 "/>
<text text-anchor="middle" x="802" y="-838.3" font-family="Times,serif" font-size="14.00" fill="#000000">STATEMENT_TYPE</text>
</g>
<!-- 0x558883bd1bb0&#45;&gt;0x558883bd1b80 -->
<g id="edge30" class="edge">
<title>0x558883bd1bb0:se&#45;&gt;0x558883bd1b80</title>
<path fill="none" stroke="black" d="M769,-913C776.73,-905.27 783.22,-895.36 788.35,-885.89"/>
<polygon fill="black" stroke="black" points="791.62,-887.18 793.02,-876.68 785.38,-884.02 791.62,-887.18"/>
</g>
<!-- 0x558883bd1a90 -->
<g id="node32" class="node">
<title>0x558883bd1a90</title>
<polygon fill="#e0f5ff" stroke="#367acc" points="712.5,-747.5 712.5,-793.5 819.5,-793.5 819.5,-747.5 712.5,-747.5"/>
<text text-anchor="middle" x="766" y="-778.3" font-family="Times,serif" font-size="14.00" fill="#4881cc">if</text>
<polyline fill="none" stroke="#367acc" points="712.5,-770.5 819.5,-770.5 "/>
<text text-anchor="middle" x="766" y="-755.3" font-family="Times,serif" font-size="14.00" fill="#4881cc">COND_TYPE</text>
</g>
<!-- 0x558883bd1b80&#45;&gt;0x558883bd1a90 -->
<g id="edge31" class="edge">
<title>0x558883bd1b80:sw&#45;&gt;0x558883bd1a90</title>
<path fill="none" stroke="black" d="M725,-830C716.4,-821.4 720.4,-810.82 728.61,-801.02"/>
<polygon fill="black" stroke="black" points="731.19,-803.38 735.56,-793.73 726.13,-798.55 731.19,-803.38"/>
</g>
<!-- 0x558883bd1820 -->
<g id="node33" class="node">
<title>0x558883bd1820</title>
<polygon fill="#e1e1ea" stroke="#52527a" points="659,-664.5 659,-710.5 765,-710.5 765,-664.5 659,-664.5"/>
<text text-anchor="middle" x="712" y="-695.3" font-family="Times,serif" font-size="14.00" fill="#52527a">&gt;</text>
<polyline fill="none" stroke="#52527a" points="659,-687.5 765,-687.5 "/>
<text text-anchor="middle" x="712" y="-672.3" font-family="Times,serif" font-size="14.00" fill="#52527a">MATH_TYPE</text>
</g>
<!-- 0x558883bd1a90&#45;&gt;0x558883bd1820 -->
<g id="edge32" class="edge">
<title>0x558883bd1a90:sw&#45;&gt;0x558883bd1820</title>
<path fill="none" stroke="black" d="M712,-747C705.2,-740.2 703.43,-730.42 703.9,-720.8"/>
<polygon fill="black" stroke="black" points="707.41,-720.92 705.16,-710.57 700.46,-720.06 707.41,-720.92"/>
</g>
<!-- 0x558883bd1a60 -->
<g id="node36" class="node">
<title>0x558883bd1a60</title>
<polygon fill="#e0f5ff" stroke="#367acc" points="919,-664.5 919,-710.5 1035,-710.5 1035,-664.5 919,-664.5"/>
<text text-anchor="middle" x="977" y="-695.3" font-family="Times,serif" font-size="14.00" fill="#4881cc">if&#45;else</text>
<polyline fill="none" stroke="#367acc" points="919,-687.5 1035,-687.5 "/>
<text text-anchor="middle" x="977" y="-672.3" font-family="Times,serif" font-size="14.00" fill="#4881cc">IFELSE_TYPE</text>
</g>
<!-- 0x558883bd1a90&#45;&gt;0x558883bd1a60 -->
<g id="edge35" class="edge">
<title>0x558883bd1a90:se&#45;&gt;0x558883bd1a60</title>
<path fill="none" stroke="black" d="M820,-747C843.85,-723.15 878.3,-708.9 908.86,-700.46"/>
<polygon fill="black" stroke="black" points="909.83,-703.82 918.63,-697.91 908.07,-697.05 909.83,-703.82"/>
</g>
<!-- 0x558883bd17c0 -->
<g id="node34" class="node">
<title>0x558883bd17c0</title>
<polygon fill="#fff9fa" stroke="#f06292" points="612,-581.5 612,-627.5 690,-627.5 690,-581.5 612,-581.5"/>
<text text-anchor="middle" x="651" y="-612.3" font-family="Times,serif" font-size="14.00" fill="#f06292">n</text>
<polyline fill="none" stroke="#f06292" points="612,-604.5 690,-604.5 "/>
<text text-anchor="middle" x="651" y="-589.3" font-family="Times,serif" font-size="14.00" fill="#f06292">ID_TYPE</text>
</g>
<!-- 0x558883bd1820&#45;&gt;0x558883bd17c0 -->
<g id="edge33" class="edge">
<title>0x558883bd1820:sw&#45;&gt;0x558883bd17c0</title>
<path fill="none" stroke="black" d="M659,-664C652.13,-657.13 649.25,-647.34 648.35,-637.72"/>
<polygon fill="black" stroke="black" points="651.84,-637.4 648.05,-627.5 644.84,-637.6 651.84,-637.4"/>
</g>
<!-- 0x558883bd17f0 -->
<g id="node35" class="node">
<title>0x558883bd17f0</title>
<polygon fill="#fffaef" stroke="#d2691e" points="708.5,-581.5 708.5,-627.5 839.5,-627.5 839.5,-581.5 708.5,-581.5"/>
<text text-anchor="middle" x="774" y="-612.3" font-family="Times,serif" font-size="14.00" fill="#ff7f50">1</text>
<polyline fill="none" stroke="#d2691e" points="708.5,-604.5 839.5,-604.5 "/>
<text text-anchor="middle" x="774" y="-589.3" font-family="Times,serif" font-size="14.00" fill="#ff7f50">NUMBER_TYPE</text>
</g>
<!-- 0x558883bd1820&#45;&gt;0x558883bd17f0 -->
<g id="edge34" class="edge">
<title>0x558883bd1820:se&#45;&gt;0x558883bd17f0</title>
<path fill="none" stroke="black" d="M765,-664C771.83,-657.17 774.86,-647.47 775.95,-637.92"/>
<polygon fill="black" stroke="black" points="779.46,-637.94 776.48,-627.77 772.47,-637.58 779.46,-637.94"/>
</g>
<!-- 0x558883bd1a30 -->
<g id="node37" class="node">
<title>0x558883bd1a30</title>
<polygon fill="#ffffff" stroke="#000000" points="862.5,-581.5 862.5,-627.5 975.5,-627.5 975.5,-581.5 862.5,-581.5"/>
<text text-anchor="middle" x="919" y="-612.3" font-family="Times,serif" font-size="14.00" fill="#000000">Block</text>
<polyline fill="none" stroke="#000000" points="862.5,-604.5 975.5,-604.5 "/>
<text text-anchor="middle" x="919" y="-589.3" font-family="Times,serif" font-size="14.00" fill="#000000">BLOCK_TYPE</text>
</g>
<!-- 0x558883bd1a60&#45;&gt;0x558883bd1a30 -->
<g id="edge36" class="edge">
<title>0x558883bd1a60:sw&#45;&gt;0x558883bd1a30</title>
<path fill="none" stroke="black" d="M919,-664C912.2,-657.2 910.43,-647.42 910.9,-637.8"/>
<polygon fill="black" stroke="black" points="914.41,-637.92 912.16,-627.57 907.46,-637.06 914.41,-637.92"/>
</g>
<!-- 0x558883bd1b50 -->
<g id="node48" class="node">
<title>0x558883bd1b50</title>
<polygon fill="#ffffff" stroke="#000000" points="1014.5,-581.5 1014.5,-627.5 1127.5,-627.5 1127.5,-581.5 1014.5,-581.5"/>
<text text-anchor="middle" x="1071" y="-612.3" font-family="Times,serif" font-size="14.00" fill="#000000">Block</text>
<polyline fill="none" stroke="#000000" points="1014.5,-604.5 1127.5,-604.5 "/>
<text text-anchor="middle" x="1071" y="-589.3" font-family="Times,serif" font-size="14.00" fill="#000000">BLOCK_TYPE</text>
</g>
<!-- 0x558883bd1a60&#45;&gt;0x558883bd1b50 -->
<g id="edge47" class="edge">
<title>0x558883bd1a60:se&#45;&gt;0x558883bd1b50</title>
<path fill="none" stroke="black" d="M1035,-664C1042.92,-656.08 1049.88,-646.09 1055.51,-636.62"/>
<polygon fill="black" stroke="black" points="1058.63,-638.21 1060.5,-627.78 1052.54,-634.77 1058.63,-638.21"/>
</g>
<!-- 0x558883bd1a00 -->
<g id="node38" class="node">
<title>0x558883bd1a00</title>
<polygon fill="#ffffff" stroke="#000000" points="899,-498.5 899,-544.5 1053,-544.5 1053,-498.5 899,-498.5"/>
<text text-anchor="middle" x="976" y="-529.3" font-family="Times,serif" font-size="14.00" fill="#000000">S</text>
<polyline fill="none" stroke="#000000" points="899,-521.5 1053,-521.5 "/>
<text text-anchor="middle" x="976" y="-506.3" font-family="Times,serif" font-size="14.00" fill="#000000">STATEMENT_TYPE</text>
</g>
<!-- 0x558883bd1a30&#45;&gt;0x558883bd1a00 -->
<g id="edge37" class="edge">
<title>0x558883bd1a30:se&#45;&gt;0x558883bd1a00</title>
<path fill="none" stroke="black" d="M976,-581C982.8,-574.2 984.57,-564.42 984.1,-554.8"/>
<polygon fill="black" stroke="black" points="987.54,-554.06 982.84,-544.57 980.59,-554.92 987.54,-554.06"/>
</g>
<!-- 0x558883bd19d0 -->
<g id="node39" class="node">
<title>0x558883bd19d0</title>
<polygon fill="#e1e1ea" stroke="#52527a" points="849.5,-415.5 849.5,-461.5 952.5,-461.5 952.5,-415.5 849.5,-415.5"/>
<text text-anchor="middle" x="901" y="-446.3" font-family="Times,serif" font-size="14.00" fill="#52527a">return</text>
<polyline fill="none" stroke="#52527a" points="849.5,-438.5 952.5,-438.5 "/>
<text text-anchor="middle" x="901" y="-423.3" font-family="Times,serif" font-size="14.00" fill="#52527a">JUMP_TYPE</text>
</g>
<!-- 0x558883bd1a00&#45;&gt;0x558883bd19d0 -->
<g id="edge38" class="edge">
<title>0x558883bd1a00:sw&#45;&gt;0x558883bd19d0</title>
<path fill="none" stroke="black" d="M899,-498C892.12,-491.12 890.67,-481.2 891.54,-471.48"/>
<polygon fill="black" stroke="black" points="895,-472 893.17,-461.56 888.1,-470.87 895,-472"/>
</g>
<!-- 0x558883bd19a0 -->
<g id="node40" class="node">
<title>0x558883bd19a0</title>
<polygon fill="#e1e1ea" stroke="#52527a" points="916,-332.5 916,-378.5 1022,-378.5 1022,-332.5 916,-332.5"/>
<text text-anchor="middle" x="969" y="-363.3" font-family="Times,serif" font-size="14.00" fill="#52527a">*</text>
<polyline fill="none" stroke="#52527a" points="916,-355.5 1022,-355.5 "/>
<text text-anchor="middle" x="969" y="-340.3" font-family="Times,serif" font-size="14.00" fill="#52527a">MATH_TYPE</text>
</g>
<!-- 0x558883bd19d0&#45;&gt;0x558883bd19a0 -->
<g id="edge39" class="edge">
<title>0x558883bd19d0:se&#45;&gt;0x558883bd19a0</title>
<path fill="none" stroke="black" d="M953,-415C960,-408 964.01,-398.26 966.3,-388.72"/>
<polygon fill="black" stroke="black" points="969.79,-389.07 968.15,-378.6 962.9,-387.81 969.79,-389.07"/>
</g>
<!-- 0x558883bd1850 -->
<g id="node41" class="node">
<title>0x558883bd1850</title>
<polygon fill="#fff9fa" stroke="#f06292" points="877,-249.5 877,-295.5 955,-295.5 955,-249.5 877,-249.5"/>
<text text-anchor="middle" x="916" y="-280.3" font-family="Times,serif" font-size="14.00" fill="#f06292">n</text>
<polyline fill="none" stroke="#f06292" points="877,-272.5 955,-272.5 "/>
<text text-anchor="middle" x="916" y="-257.3" font-family="Times,serif" font-size="14.00" fill="#f06292">ID_TYPE</text>
</g>
<!-- 0x558883bd19a0&#45;&gt;0x558883bd1850 -->
<g id="edge40" class="edge">
<title>0x558883bd19a0:sw&#45;&gt;0x558883bd1850</title>
<path fill="none" stroke="black" d="M916,-332C909.2,-325.2 907.43,-315.42 907.9,-305.8"/>
<polygon fill="black" stroke="black" points="911.41,-305.92 909.16,-295.57 904.46,-305.06 911.41,-305.92"/>
</g>
<!-- 0x558883bd1970 -->
<g id="node42" class="node">
<title>0x558883bd1970</title>
<polygon fill="#e1e1ea" stroke="#52527a" points="973,-249.5 973,-295.5 1073,-295.5 1073,-249.5 973,-249.5"/>
<text text-anchor="middle" x="1023" y="-280.3" font-family="Times,serif" font-size="14.00" fill="#52527a">call</text>
<polyline fill="none" stroke="#52527a" points="973,-272.5 1073,-272.5 "/>
<text text-anchor="middle" x="1023" y="-257.3" font-family="Times,serif" font-size="14.00" fill="#52527a">CALL_TYPE</text>
</g>
<!-- 0x558883bd19a0&#45;&gt;0x558883bd1970 -->
<g id="edge41" class="edge">
<title>0x558883bd19a0:se&#45;&gt;0x558883bd1970</title>
<path fill="none" stroke="black" d="M1022,-332C1028.8,-325.2 1030.71,-315.42 1030.41,-305.8"/>
<polygon fill="black" stroke="black" points="1033.86,-305.15 1029.35,-295.57 1026.9,-305.87 1033.86,-305.15"/>
</g>
<!-- 0x558883bd1880 -->
<g id="node43" class="node">
<title>0x558883bd1880</title>
<polygon fill="#fff9fa" stroke="#f06292" points="920,-166.5 920,-212.5 998,-212.5 998,-166.5 920,-166.5"/>
<text text-anchor="middle" x="959" y="-197.3" font-family="Times,serif" font-size="14.00" fill="#f06292">fact</text>
<polyline fill="none" stroke="#f06292" points="920,-189.5 998,-189.5 "/>
<text text-anchor="middle" x="959" y="-174.3" font-family="Times,serif" font-size="14.00" fill="#f06292">ID_TYPE</text>
</g>
<!-- 0x558883bd1970&#45;&gt;0x558883bd1880 -->
<g id="edge42" class="edge">
<title>0x558883bd1970:sw&#45;&gt;0x558883bd1880</title>
<path fill="none" stroke="black" d="M973,-249C966.06,-242.06 962.33,-232.33 960.38,-222.79"/>
<polygon fill="black" stroke="black" points="963.81,-222.05 958.91,-212.66 956.89,-223.06 963.81,-222.05"/>
</g>
<!-- 0x558883bd1940 -->
<g id="node44" class="node">
<title>0x558883bd1940</title>
<polygon fill="#e1e1ea" stroke="#52527a" points="1016,-166.5 1016,-212.5 1158,-212.5 1158,-166.5 1016,-166.5"/>
<text text-anchor="middle" x="1087" y="-197.3" font-family="Times,serif" font-size="14.00" fill="#52527a">param</text>
<polyline fill="none" stroke="#52527a" points="1016,-189.5 1158,-189.5 "/>
<text text-anchor="middle" x="1087" y="-174.3" font-family="Times,serif" font-size="14.00" fill="#52527a">EXPR_LIST_TYPE</text>
</g>
<!-- 0x558883bd1970&#45;&gt;0x558883bd1940 -->
<g id="edge43" class="edge">
<title>0x558883bd1970:se&#45;&gt;0x558883bd1940</title>
<path fill="none" stroke="black" d="M1073,-249C1079.94,-242.06 1083.67,-232.33 1085.62,-222.79"/>
<polygon fill="black" stroke="black" points="1089.11,-223.06 1087.09,-212.66 1082.19,-222.05 1089.11,-223.06"/>
</g>
<!-- 0x558883bd1910 -->
<g id="node45" class="node">
<title>0x558883bd1910</title>
<polygon fill="#e1e1ea" stroke="#52527a" points="963,-83.5 963,-129.5 1069,-129.5 1069,-83.5 963,-83.5"/>
<text text-anchor="middle" x="1016" y="-114.3" font-family="Times,serif" font-size="14.00" fill="#52527a">&#45;</text>
<polyline fill="none" stroke="#52527a" points="963,-106.5 1069,-106.5 "/>
<text text-anchor="middle" x="1016" y="-91.3" font-family="Times,serif" font-size="14.00" fill="#52527a">MATH_TYPE</text>
</g>
<!-- 0x558883bd1940&#45;&gt;0x558883bd1910 -->
<g id="edge44" class="edge">
<title>0x558883bd1940:sw&#45;&gt;0x558883bd1910</title>
<path fill="none" stroke="black" d="M1016,-166C1009.2,-159.2 1007.43,-149.42 1007.9,-139.8"/>
<polygon fill="black" stroke="black" points="1011.41,-139.92 1009.16,-129.57 1004.46,-139.06 1011.41,-139.92"/>
</g>
<!-- 0x558883bd18b0 -->
<g id="node46" class="node">
<title>0x558883bd18b0</title>
<polygon fill="#fff9fa" stroke="#f06292" points="916,-0.5 916,-46.5 994,-46.5 994,-0.5 916,-0.5"/>
<text text-anchor="middle" x="955" y="-31.3" font-family="Times,serif" font-size="14.00" fill="#f06292">n</text>
<polyline fill="none" stroke="#f06292" points="916,-23.5 994,-23.5 "/>
<text text-anchor="middle" x="955" y="-8.3" font-family="Times,serif" font-size="14.00" fill="#f06292">ID_TYPE</text>
</g>
<!-- 0x558883bd1910&#45;&gt;0x558883bd18b0 -->
<g id="edge45" class="edge">
<title>0x558883bd1910:sw&#45;&gt;0x558883bd18b0</title>
<path fill="none" stroke="black" d="M963,-83C956.13,-76.13 953.25,-66.34 952.35,-56.72"/>
<polygon fill="black" stroke="black" points="955.84,-56.4 952.05,-46.5 948.84,-56.6 955.84,-56.4"/>
</g>
<!-- 0x558883bd18e0 -->
<g id="node47" class="node">
<title>0x558883bd18e0</title>
<polygon fill="#fffaef" stroke="#d2691e" points="1012.5,-0.5 1012.5,-46.5 1143.5,-46.5 1143.5,-0.5 1012.5,-0.5"/>
<text text-anchor="middle" x="1078" y="-31.3" font-family="Times,serif" font-size="14.00" fill="#ff7f50">1</text>
<polyline fill="none" stroke="#d2691e" points="1012.5,-23.5 1143.5,-23.5 "/>
<text text-anchor="middle" x="1078" y="-8.3" font-family="Times,serif" font-size="14.00" fill="#ff7f50">NUMBER_TYPE</text>
</g>
<!-- 0x558883bd1910&#45;&gt;0x558883bd18e0 -->
<g id="edge46" class="edge">
<title>0x558883bd1910:se&#45;&gt;0x558883bd18e0</title>
<path fill="none" stroke="black" d="M1069,-83C1075.83,-76.17 1078.86,-66.47 1079.95,-56.92"/>
<polygon fill="black" stroke="black" points="1083.46,-56.94 1080.48,-46.77 1076.47,-56.58 1083.46,-56.94"/>
</g>
<!-- 0x558883bd1b20 -->
<g id="node49" class="node">
<title>0x558883bd1b20</title>
<polygon fill="#ffffff" stroke="#000000" points="1071,-498.5 1071,-544.5 1225,-544.5 1225,-498.5 1071,-498.5"/>
<text text-anchor="middle" x="1148" y="-529.3" font-family="Times,serif" font-size="14.00" fill="#000000">S</text>
<polyline fill="none" stroke="#000000" points="1071,-521.5 1225,-521.5 "/>
<text text-anchor="middle" x="1148" y="-506.3" font-family="Times,serif" font-size="14.00" fill="#000000">STATEMENT_TYPE</text>
</g>
<!-- 0x558883bd1b50&#45;&gt;0x558883bd1b20 -->
<g id="edge48" class="edge">
<title>0x558883bd1b50:se&#45;&gt;0x558883bd1b20</title>
<path fill="none" stroke="black" d="M1128,-581C1135.15,-573.85 1139.75,-564.03 1142.7,-554.48"/>
<polygon fill="black" stroke="black" points="1146.11,-555.31 1145.23,-544.75 1139.33,-553.55 1146.11,-555.31"/>
</g>
<!-- 0x558883bd1af0 -->
<g id="node50" class="node">
<title>0x558883bd1af0</title>
<polygon fill="#e1e1ea" stroke="#52527a" points="1019.5,-415.5 1019.5,-461.5 1122.5,-461.5 1122.5,-415.5 1019.5,-415.5"/>
<text text-anchor="middle" x="1071" y="-446.3" font-family="Times,serif" font-size="14.00" fill="#52527a">return</text>
<polyline fill="none" stroke="#52527a" points="1019.5,-438.5 1122.5,-438.5 "/>
<text text-anchor="middle" x="1071" y="-423.3" font-family="Times,serif" font-size="14.00" fill="#52527a">JUMP_TYPE</text>
</g>
<!-- 0x558883bd1b20&#45;&gt;0x558883bd1af0 -->
<g id="edge49" class="edge">
<title>0x558883bd1b20:sw&#45;&gt;0x558883bd1af0</title>
<path fill="none" stroke="black" d="M1071,-498C1064.2,-491.2 1062.43,-481.42 1062.9,-471.8"/>
<polygon fill="black" stroke="black" points="1066.41,-471.92 1064.16,-461.57 1059.46,-471.06 1066.41,-471.92"/>
</g>
<!-- 0x558883bd1ac0 -->
<g id="node51" class="node">
<title>0x558883bd1ac0</title>
<polygon fill="#fffaef" stroke="#d2691e" points="1057.5,-332.5 1057.5,-378.5 1188.5,-378.5 1188.5,-332.5 1057.5,-332.5"/>
<text text-anchor="middle" x="1123" y="-363.3" font-family="Times,serif" font-size="14.00" fill="#ff7f50">1</text>
<polyline fill="none" stroke="#d2691e" points="1057.5,-355.5 1188.5,-355.5 "/>
<text text-anchor="middle" x="1123" y="-340.3" font-family="Times,serif" font-size="14.00" fill="#ff7f50">NUMBER_TYPE</text>
</g>
<!-- 0x558883bd1af0&#45;&gt;0x558883bd1ac0 -->
<g id="edge50" class="edge">
<title>0x558883bd1af0:se&#45;&gt;0x558883bd1ac0</title>
<path fill="none" stroke="black" d="M1123,-415C1129.8,-408.2 1131.57,-398.42 1131.1,-388.8"/>
<polygon fill="black" stroke="black" points="1134.54,-388.06 1129.84,-378.57 1127.59,-388.92 1134.54,-388.06"/>
</g>
</g>
</svg>
