<?xml version="1.0" encoding="UTF-8" standalone="no"?>
<!DOCTYPE svg PUBLIC "-//W3C//DTD SVG 1.1//EN"
 "http://www.w3.org/Graphics/SVG/1.1/DTD/svg11.dtd">
<!-- Generated by graphviz version 2.47.1 (0)
 -->
<!-- Title: structs Pages: 1 -->
<svg width="742pt" height="1636pt"
 viewBox="0.00 0.00 741.74 1635.61" xmlns="http://www.w3.org/2000/svg" xmlns:xlink="http://www.w3.org/1999/xlink">
<g id="graph0" class="graph" transform="scale(1 1) rotate(0) translate(4 1631.61)">
<title>structs</title>
<polygon fill="white" stroke="transparent" points="-4,4 -4,-1631.61 737.74,-1631.61 737.74,4 -4,4"/>
<!-- 0x558883bd16e0 -->
<g id="node1" class="node">
<title>0x558883bd16e0</title>
<ellipse fill="#ffffff" stroke="#000000" cx="219.45" cy="-1534.66" rx="92.88" ry="92.88"/>
<text text-anchor="middle" x="219.45" y="-1530.96" font-family="Times,serif" font-size="14.00" fill="#000000">FDECL (non&#45;void)</text>
</g>
<!-- 0x558883bd1be0 -->
<g id="node2" class="node">
<title>0x558883bd1be0</title>
<ellipse fill="#ffffff" stroke="#000000" cx="149.45" cy="-1312.78" rx="92.88" ry="92.88"/>
<text text-anchor="middle" x="149.45" y="-1309.08" font-family="Times,serif" font-size="14.00" fill="#000000">FDECL (non&#45;void)</text>
</g>
<!-- 0x558883bd16e0&#45;&gt;0x558883bd1be0 -->
<g id="edge1" class="edge">
<title>0x558883bd16e0:sw&#45;&gt;0x558883bd1be0</title>
<path fill="none" stroke="black" d="M153.45,-1467.66C139.22,-1453.44 133.02,-1434.27 131.34,-1414.3"/>
<polygon fill="black" stroke="black" points="134.83,-1413.96 130.87,-1404.13 127.84,-1414.28 134.83,-1413.96"/>
</g>
<!-- 0x558883bd1710 -->
<g id="node29" class="node">
<title>0x558883bd1710</title>
<ellipse fill="#fff9fa" stroke="#f06292" cx="304.45" cy="-1312.78" rx="28.7" ry="28.7"/>
<text text-anchor="middle" x="304.45" y="-1309.08" font-family="Times,serif" font-size="14.00" fill="#f06292">fact</text>
</g>
<!-- 0x558883bd16e0&#45;&gt;0x558883bd1710 -->
<g id="edge28" class="edge">
<title>0x558883bd16e0:se&#45;&gt;0x558883bd1710</title>
<path fill="none" stroke="black" d="M285.45,-1467.66C315.46,-1437.65 315.71,-1386.23 311.47,-1351.16"/>
<polygon fill="black" stroke="black" points="314.88,-1350.26 310.04,-1340.84 307.95,-1351.22 314.88,-1350.26"/>
</g>
<!-- 0x558883bd1c10 -->
<g id="node3" class="node">
<title>0x558883bd1c10</title>
<ellipse fill="#fff9fa" stroke="#f06292" cx="169.45" cy="-1147.44" rx="29.8" ry="29.8"/>
<text text-anchor="middle" x="169.45" y="-1143.74" font-family="Times,serif" font-size="14.00" fill="#f06292">love</text>
</g>
<!-- 0x558883bd1be0&#45;&gt;0x558883bd1c10 -->
<g id="edge2" class="edge">
<title>0x558883bd1be0:se&#45;&gt;0x558883bd1c10</title>
<path fill="none" stroke="black" d="M215.45,-1245.78C234.87,-1226.36 216.84,-1197.16 197.95,-1175.81"/>
<polygon fill="black" stroke="black" points="200.38,-1173.29 191.02,-1168.33 195.25,-1178.04 200.38,-1173.29"/>
</g>
<!-- 0x558883bd1d50 -->
<g id="node4" class="node">
<title>0x558883bd1d50</title>
<ellipse fill="#ffffff" stroke="#000000" cx="132.45" cy="-1038.65" rx="36.29" ry="36.29"/>
<text text-anchor="middle" x="132.45" y="-1034.95" font-family="Times,serif" font-size="14.00" fill="#000000">Block</text>
</g>
<!-- 0x558883bd1c10&#45;&gt;0x558883bd1d50 -->
<g id="edge3" class="edge">
<title>0x558883bd1c10:sw&#45;&gt;0x558883bd1d50</title>
<path fill="none" stroke="black" d="M148.45,-1125.44C137.91,-1114.91 133.11,-1099.81 131.19,-1085.21"/>
<polygon fill="black" stroke="black" points="134.68,-1084.89 130.29,-1075.25 127.7,-1085.52 134.68,-1084.89"/>
</g>
<!-- 0x558883bd1d20 -->
<g id="node5" class="node">
<title>0x558883bd1d20</title>
<ellipse fill="#ffffff" stroke="#000000" cx="140.45" cy="-948.25" rx="18" ry="18"/>
<text text-anchor="middle" x="140.45" y="-944.55" font-family="Times,serif" font-size="14.00" fill="#000000">S</text>
</g>
<!-- 0x558883bd1d50&#45;&gt;0x558883bd1d20 -->
<g id="edge4" class="edge">
<title>0x558883bd1d50:se&#45;&gt;0x558883bd1d20</title>
<path fill="none" stroke="black" d="M158.45,-1011.65C168.94,-1001.16 163.88,-984.96 156.5,-971.7"/>
<polygon fill="black" stroke="black" points="159.41,-969.75 151.17,-963.09 153.46,-973.43 159.41,-969.75"/>
</g>
<!-- 0x558883bd1cf0 -->
<g id="node6" class="node">
<title>0x558883bd1cf0</title>
<ellipse fill="#ffffff" stroke="#000000" cx="68.45" cy="-855.91" rx="18.7" ry="18.7"/>
<text text-anchor="middle" x="68.45" y="-852.21" font-family="Times,serif" font-size="14.00" fill="#000000">=</text>
</g>
<!-- 0x558883bd1d20&#45;&gt;0x558883bd1cf0 -->
<g id="edge5" class="edge">
<title>0x558883bd1d20:sw&#45;&gt;0x558883bd1cf0</title>
<path fill="none" stroke="black" d="M127.45,-934.25C110.92,-917.73 95.02,-896.47 83.9,-880.42"/>
<polygon fill="black" stroke="black" points="86.76,-878.4 78.24,-872.11 80.98,-882.34 86.76,-878.4"/>
</g>
<!-- 0x558883bd1e40 -->
<g id="node9" class="node">
<title>0x558883bd1e40</title>
<ellipse fill="#ffffff" stroke="#000000" cx="153.45" cy="-855.91" rx="18" ry="18"/>
<text text-anchor="middle" x="153.45" y="-852.21" font-family="Times,serif" font-size="14.00" fill="#000000">S</text>
</g>
<!-- 0x558883bd1d20&#45;&gt;0x558883bd1e40 -->
<g id="edge8" class="edge">
<title>0x558883bd1d20:se&#45;&gt;0x558883bd1e40</title>
<path fill="none" stroke="black" d="M153.45,-934.25C166.5,-921.2 165.53,-899.86 161.84,-882.9"/>
<polygon fill="black" stroke="black" points="165.18,-881.83 159.29,-873.02 158.4,-883.58 165.18,-881.83"/>
</g>
<!-- 0x558883bd1c90 -->
<g id="node7" class="node">
<title>0x558883bd1c90</title>
<ellipse fill="#fff9fa" stroke="#f06292" cx="27.45" cy="-745.16" rx="18" ry="18"/>
<text text-anchor="middle" x="27.45" y="-741.46" font-family="Times,serif" font-size="14.00" fill="#f06292">n</text>
</g>
<!-- 0x558883bd1cf0&#45;&gt;0x558883bd1c90 -->
<g id="edge6" class="edge">
<title>0x558883bd1cf0:sw&#45;&gt;0x558883bd1c90</title>
<path fill="none" stroke="black" d="M55.45,-841.91C37.43,-823.89 30.87,-794.95 28.56,-773.6"/>
<polygon fill="black" stroke="black" points="32.03,-773.19 27.71,-763.52 25.06,-773.78 32.03,-773.19"/>
</g>
<!-- 0x558883bd1cc0 -->
<g id="node8" class="node">
<title>0x558883bd1cc0</title>
<ellipse fill="#fffaef" stroke="#d2691e" cx="81.45" cy="-745.16" rx="18" ry="18"/>
<text text-anchor="middle" x="81.45" y="-741.46" font-family="Times,serif" font-size="14.00" fill="#ff7f50">0</text>
</g>
<!-- 0x558883bd1cf0&#45;&gt;0x558883bd1cc0 -->
<g id="edge7" class="edge">
<title>0x558883bd1cf0:se&#45;&gt;0x558883bd1cc0</title>
<path fill="none" stroke="black" d="M81.45,-841.91C99.22,-824.13 96,-793.94 90.38,-772.21"/>
<polygon fill="black" stroke="black" points="93.65,-770.94 87.51,-762.31 86.93,-772.89 93.65,-770.94"/>
</g>
<!-- 0x558883bd1e10 -->
<g id="node10" class="node">
<title>0x558883bd1e10</title>
<ellipse fill="#e1e1ea" stroke="#52527a" cx="136.45" cy="-745.16" rx="18.7" ry="18.7"/>
<text text-anchor="middle" x="136.45" y="-741.46" font-family="Times,serif" font-size="14.00" fill="#52527a">=</text>
</g>
<!-- 0x558883bd1e40&#45;&gt;0x558883bd1e10 -->
<g id="edge9" class="edge">
<title>0x558883bd1e40:sw&#45;&gt;0x558883bd1e10</title>
<path fill="none" stroke="black" d="M140.45,-841.91C122.96,-824.42 124.43,-794.95 128.74,-773.32"/>
<polygon fill="black" stroke="black" points="132.19,-773.94 131.02,-763.41 125.37,-772.37 132.19,-773.94"/>
</g>
<!-- 0x558883bd1f90 -->
<g id="node14" class="node">
<title>0x558883bd1f90</title>
<ellipse fill="#ffffff" stroke="#000000" cx="208.45" cy="-745.16" rx="18" ry="18"/>
<text text-anchor="middle" x="208.45" y="-741.46" font-family="Times,serif" font-size="14.00" fill="#000000">S</text>
</g>
<!-- 0x558883bd1e40&#45;&gt;0x558883bd1f90 -->
<g id="edge13" class="edge">
<title>0x558883bd1e40:se&#45;&gt;0x558883bd1f90</title>
<path fill="none" stroke="black" d="M166.45,-841.91C185.33,-823.02 196.38,-794.22 202.37,-773.13"/>
<polygon fill="black" stroke="black" points="205.82,-773.75 204.98,-763.19 199.05,-771.97 205.82,-773.75"/>
</g>
<!-- 0x558883bd1d80 -->
<g id="node11" class="node">
<title>0x558883bd1d80</title>
<ellipse fill="#fff9fa" stroke="#f06292" cx="69.45" cy="-646.12" rx="18" ry="18"/>
<text text-anchor="middle" x="69.45" y="-642.42" font-family="Times,serif" font-size="14.00" fill="#f06292">n</text>
</g>
<!-- 0x558883bd1e10&#45;&gt;0x558883bd1d80 -->
<g id="edge10" class="edge">
<title>0x558883bd1e10:sw&#45;&gt;0x558883bd1d80</title>
<path fill="none" stroke="black" d="M123.45,-731.16C120.92,-728.63 99.23,-694.48 84.13,-670.5"/>
<polygon fill="black" stroke="black" points="87,-668.49 78.71,-661.89 81.08,-672.22 87,-668.49"/>
</g>
<!-- 0x558883bd1de0 -->
<g id="node12" class="node">
<title>0x558883bd1de0</title>
<ellipse fill="#e1e1ea" stroke="#52527a" cx="132.45" cy="-646.12" rx="26.8" ry="26.8"/>
<text text-anchor="middle" x="132.45" y="-642.42" font-family="Times,serif" font-size="14.00" fill="#52527a">call</text>
</g>
<!-- 0x558883bd1e10&#45;&gt;0x558883bd1de0 -->
<g id="edge11" class="edge">
<title>0x558883bd1e10:se&#45;&gt;0x558883bd1de0</title>
<path fill="none" stroke="black" d="M149.45,-731.16C163.04,-717.57 158.6,-696.32 150.86,-678.58"/>
<polygon fill="black" stroke="black" points="153.81,-676.65 146.31,-669.16 147.5,-679.69 153.81,-676.65"/>
</g>
<!-- 0x558883bd1db0 -->
<g id="node13" class="node">
<title>0x558883bd1db0</title>
<ellipse fill="#fff9fa" stroke="#f06292" cx="34.45" cy="-543.17" rx="34.39" ry="34.39"/>
<text text-anchor="middle" x="34.45" y="-539.47" font-family="Times,serif" font-size="14.00" fill="#f06292">accio</text>
</g>
<!-- 0x558883bd1de0&#45;&gt;0x558883bd1db0 -->
<g id="edge12" class="edge">
<title>0x558883bd1de0:sw&#45;&gt;0x558883bd1db0</title>
<path fill="none" stroke="black" d="M113.45,-626.12C97.26,-609.94 79.56,-591.62 65.01,-576.42"/>
<polygon fill="black" stroke="black" points="67.16,-573.6 57.72,-568.78 62.09,-578.43 67.16,-573.6"/>
</g>
<!-- 0x558883bd1f60 -->
<g id="node15" class="node">
<title>0x558883bd1f60</title>
<ellipse fill="#ffffff" stroke="#000000" cx="195.45" cy="-646.12" rx="18.7" ry="18.7"/>
<text text-anchor="middle" x="195.45" y="-642.42" font-family="Times,serif" font-size="14.00" fill="#000000">=</text>
</g>
<!-- 0x558883bd1f90&#45;&gt;0x558883bd1f60 -->
<g id="edge14" class="edge">
<title>0x558883bd1f90:sw&#45;&gt;0x558883bd1f60</title>
<path fill="none" stroke="black" d="M195.45,-731.16C180.82,-716.54 182.39,-692.34 186.71,-673.66"/>
<polygon fill="black" stroke="black" points="190.1,-674.5 189.3,-663.94 183.34,-672.7 190.1,-674.5"/>
</g>
<!-- 0x558883bd2080 -->
<g id="node21" class="node">
<title>0x558883bd2080</title>
<ellipse fill="#ffffff" stroke="#000000" cx="359.45" cy="-646.12" rx="18" ry="18"/>
<text text-anchor="middle" x="359.45" y="-642.42" font-family="Times,serif" font-size="14.00" fill="#000000">S</text>
</g>
<!-- 0x558883bd1f90&#45;&gt;0x558883bd2080 -->
<g id="edge20" class="edge">
<title>0x558883bd1f90:se&#45;&gt;0x558883bd2080</title>
<path fill="none" stroke="black" d="M221.45,-731.16C254.77,-697.84 303.79,-672.06 333.56,-658.27"/>
<polygon fill="black" stroke="black" points="335.19,-661.37 342.86,-654.06 332.31,-654.99 335.19,-661.37"/>
</g>
<!-- 0x558883bd1e70 -->
<g id="node16" class="node">
<title>0x558883bd1e70</title>
<ellipse fill="#fff9fa" stroke="#f06292" cx="125.45" cy="-543.17" rx="38.19" ry="38.19"/>
<text text-anchor="middle" x="125.45" y="-539.47" font-family="Times,serif" font-size="14.00" fill="#f06292">result</text>
</g>
<!-- 0x558883bd1f60&#45;&gt;0x558883bd1e70 -->
<g id="edge15" class="edge">
<title>0x558883bd1f60:sw&#45;&gt;0x558883bd1e70</title>
<path fill="none" stroke="black" d="M182.45,-632.12C169.22,-618.89 157.42,-602.1 148.04,-586.75"/>
<polygon fill="black" stroke="black" points="150.91,-584.73 142.8,-577.91 144.89,-588.29 150.91,-584.73"/>
</g>
<!-- 0x558883bd1f30 -->
<g id="node17" class="node">
<title>0x558883bd1f30</title>
<ellipse fill="#e1e1ea" stroke="#52527a" cx="208.45" cy="-543.17" rx="26.8" ry="26.8"/>
<text text-anchor="middle" x="208.45" y="-539.47" font-family="Times,serif" font-size="14.00" fill="#52527a">call</text>
</g>
<!-- 0x558883bd1f60&#45;&gt;0x558883bd1f30 -->
<g id="edge16" class="edge">
<title>0x558883bd1f60:se&#45;&gt;0x558883bd1f30</title>
<path fill="none" stroke="black" d="M208.45,-632.12C222.11,-618.45 222.26,-596.81 218.93,-578.41"/>
<polygon fill="black" stroke="black" points="222.34,-577.61 216.78,-568.59 215.5,-579.11 222.34,-577.61"/>
</g>
<!-- 0x558883bd1ea0 -->
<g id="node18" class="node">
<title>0x558883bd1ea0</title>
<ellipse fill="#fff9fa" stroke="#f06292" cx="119.45" cy="-420.08" rx="28.7" ry="28.7"/>
<text text-anchor="middle" x="119.45" y="-416.38" font-family="Times,serif" font-size="14.00" fill="#f06292">fact</text>
</g>
<!-- 0x558883bd1f30&#45;&gt;0x558883bd1ea0 -->
<g id="edge17" class="edge">
<title>0x558883bd1f30:sw&#45;&gt;0x558883bd1ea0</title>
<path fill="none" stroke="black" d="M189.45,-523.17C178.1,-511.82 156.16,-478.96 139.85,-453.55"/>
<polygon fill="black" stroke="black" points="142.67,-451.47 134.34,-444.92 136.77,-455.23 142.67,-451.47"/>
</g>
<!-- 0x558883bd1f00 -->
<g id="node19" class="node">
<title>0x558883bd1f00</title>
<ellipse fill="#e1e1ea" stroke="#52527a" cx="206.45" cy="-420.08" rx="40.09" ry="40.09"/>
<text text-anchor="middle" x="206.45" y="-416.38" font-family="Times,serif" font-size="14.00" fill="#52527a">param</text>
</g>
<!-- 0x558883bd1f30&#45;&gt;0x558883bd1f00 -->
<g id="edge18" class="edge">
<title>0x558883bd1f30:se&#45;&gt;0x558883bd1f00</title>
<path fill="none" stroke="black" d="M227.45,-523.17C242.76,-507.86 239.17,-484.56 231,-464.08"/>
<polygon fill="black" stroke="black" points="234.2,-462.65 226.97,-454.9 227.79,-465.47 234.2,-462.65"/>
</g>
<!-- 0x558883bd1ed0 -->
<g id="node20" class="node">
<title>0x558883bd1ed0</title>
<ellipse fill="#fff9fa" stroke="#f06292" cx="177.45" cy="-298.94" rx="18" ry="18"/>
<text text-anchor="middle" x="177.45" y="-295.24" font-family="Times,serif" font-size="14.00" fill="#f06292">n</text>
</g>
<!-- 0x558883bd1f00&#45;&gt;0x558883bd1ed0 -->
<g id="edge19" class="edge">
<title>0x558883bd1f00:sw&#45;&gt;0x558883bd1ed0</title>
<path fill="none" stroke="black" d="M177.45,-390.08C161.14,-373.78 163.61,-346.39 168.63,-326.07"/>
<polygon fill="black" stroke="black" points="172.07,-326.76 171.41,-316.18 165.34,-324.87 172.07,-326.76"/>
</g>
<!-- 0x558883bd2050 -->
<g id="node22" class="node">
<title>0x558883bd2050</title>
<ellipse fill="#e1e1ea" stroke="#52527a" cx="346.45" cy="-543.17" rx="26.8" ry="26.8"/>
<text text-anchor="middle" x="346.45" y="-539.47" font-family="Times,serif" font-size="14.00" fill="#52527a">call</text>
</g>
<!-- 0x558883bd2080&#45;&gt;0x558883bd2050 -->
<g id="edge21" class="edge">
<title>0x558883bd2080:sw&#45;&gt;0x558883bd2050</title>
<path fill="none" stroke="black" d="M346.45,-632.12C332.78,-618.45 332.63,-596.81 335.97,-578.41"/>
<polygon fill="black" stroke="black" points="339.4,-579.11 338.12,-568.59 332.56,-577.61 339.4,-579.11"/>
</g>
<!-- 0x558883bd2110 -->
<g id="node26" class="node">
<title>0x558883bd2110</title>
<ellipse fill="#ffffff" stroke="#000000" cx="440.45" cy="-543.17" rx="18" ry="18"/>
<text text-anchor="middle" x="440.45" y="-539.47" font-family="Times,serif" font-size="14.00" fill="#000000">S</text>
</g>
<!-- 0x558883bd2080&#45;&gt;0x558883bd2110 -->
<g id="edge25" class="edge">
<title>0x558883bd2080:se&#45;&gt;0x558883bd2110</title>
<path fill="none" stroke="black" d="M372.45,-632.12C392.62,-611.95 412.17,-585.75 425.09,-567.21"/>
<polygon fill="black" stroke="black" points="428.1,-569.01 430.87,-558.78 422.32,-565.05 428.1,-569.01"/>
</g>
<!-- 0x558883bd2020 -->
<g id="node23" class="node">
<title>0x558883bd2020</title>
<ellipse fill="#fff9fa" stroke="#f06292" cx="311.45" cy="-420.08" rx="46.59" ry="46.59"/>
<text text-anchor="middle" x="311.45" y="-416.38" font-family="Times,serif" font-size="14.00" fill="#f06292">flagrate</text>
</g>
<!-- 0x558883bd2050&#45;&gt;0x558883bd2020 -->
<g id="edge22" class="edge">
<title>0x558883bd2050:sw&#45;&gt;0x558883bd2020</title>
<path fill="none" stroke="black" d="M327.45,-523.17C315.42,-511.15 310.1,-494.02 308.18,-477.23"/>
<polygon fill="black" stroke="black" points="311.64,-476.57 307.39,-466.86 304.66,-477.1 311.64,-476.57"/>
</g>
<!-- 0x558883bd1ff0 -->
<g id="node24" class="node">
<title>0x558883bd1ff0</title>
<ellipse fill="#e1e1ea" stroke="#52527a" cx="416.45" cy="-420.08" rx="40.09" ry="40.09"/>
<text text-anchor="middle" x="416.45" y="-416.38" font-family="Times,serif" font-size="14.00" fill="#52527a">param</text>
</g>
<!-- 0x558883bd2050&#45;&gt;0x558883bd1ff0 -->
<g id="edge23" class="edge">
<title>0x558883bd2050:se&#45;&gt;0x558883bd1ff0</title>
<path fill="none" stroke="black" d="M365.45,-523.17C380.79,-507.83 392.34,-486.94 400.53,-468.05"/>
<polygon fill="black" stroke="black" points="403.82,-469.26 404.4,-458.68 397.34,-466.59 403.82,-469.26"/>
</g>
<!-- 0x558883bd1fc0 -->
<g id="node25" class="node">
<title>0x558883bd1fc0</title>
<ellipse fill="#fff9fa" stroke="#f06292" cx="387.45" cy="-298.94" rx="38.19" ry="38.19"/>
<text text-anchor="middle" x="387.45" y="-295.24" font-family="Times,serif" font-size="14.00" fill="#f06292">result</text>
</g>
<!-- 0x558883bd1ff0&#45;&gt;0x558883bd1fc0 -->
<g id="edge24" class="edge">
<title>0x558883bd1ff0:sw&#45;&gt;0x558883bd1fc0</title>
<path fill="none" stroke="black" d="M387.45,-390.08C376.1,-378.73 373.84,-362.02 375.21,-346.05"/>
<polygon fill="black" stroke="black" points="378.74,-346.1 376.58,-335.73 371.8,-345.18 378.74,-346.1"/>
</g>
<!-- 0x558883bd20e0 -->
<g id="node27" class="node">
<title>0x558883bd20e0</title>
<ellipse fill="#e1e1ea" stroke="#52527a" cx="515.45" cy="-420.08" rx="40.09" ry="40.09"/>
<text text-anchor="middle" x="515.45" y="-416.38" font-family="Times,serif" font-size="14.00" fill="#52527a">return</text>
</g>
<!-- 0x558883bd2110&#45;&gt;0x558883bd20e0 -->
<g id="edge26" class="edge">
<title>0x558883bd2110:sw&#45;&gt;0x558883bd20e0</title>
<path fill="none" stroke="black" d="M427.45,-529.17C420.95,-522.68 453.16,-485.82 480.42,-456.93"/>
<polygon fill="black" stroke="black" points="483.22,-459.06 487.58,-449.4 478.15,-454.24 483.22,-459.06"/>
</g>
<!-- 0x558883bd20b0 -->
<g id="node28" class="node">
<title>0x558883bd20b0</title>
<ellipse fill="#fffaef" stroke="#d2691e" cx="533.45" cy="-298.94" rx="18" ry="18"/>
<text text-anchor="middle" x="533.45" y="-295.24" font-family="Times,serif" font-size="14.00" fill="#ff7f50">0</text>
</g>
<!-- 0x558883bd20e0&#45;&gt;0x558883bd20b0 -->
<g id="edge27" class="edge">
<title>0x558883bd20e0:se&#45;&gt;0x558883bd20b0</title>
<path fill="none" stroke="black" d="M544.45,-390.08C561.31,-373.22 554.41,-344.82 545.93,-324.4"/>
<polygon fill="black" stroke="black" points="549.04,-322.78 541.75,-315.1 542.66,-325.65 549.04,-322.78"/>
</g>
<!-- 0x558883bd1bb0 -->
<g id="node30" class="node">
<title>0x558883bd1bb0</title>
<ellipse fill="#ffffff" stroke="#000000" cx="284.45" cy="-1147.44" rx="36.29" ry="36.29"/>
<text text-anchor="middle" x="284.45" y="-1143.74" font-family="Times,serif" font-size="14.00" fill="#000000">Block</text>
</g>
<!-- 0x558883bd1710&#45;&gt;0x558883bd1bb0 -->
<g id="edge29" class="edge">
<title>0x558883bd1710:sw&#45;&gt;0x558883bd1bb0</title>
<path fill="none" stroke="black" d="M284.45,-1291.78C259.04,-1266.38 262.29,-1224.04 269.96,-1191.94"/>
<polygon fill="black" stroke="black" points="273.43,-1192.48 272.57,-1181.92 266.66,-1190.71 273.43,-1192.48"/>
</g>
<!-- 0x558883bd1790 -->
<g id="node52" class="node">
<title>0x558883bd1790</title>
<ellipse fill="#fff9fa" stroke="#f06292" cx="356.45" cy="-1147.44" rx="18" ry="18"/>
<text text-anchor="middle" x="356.45" y="-1143.74" font-family="Times,serif" font-size="14.00" fill="#f06292">n</text>
</g>
<!-- 0x558883bd1710&#45;&gt;0x558883bd1790 -->
<g id="edge51" class="edge">
<title>0x558883bd1710:se&#45;&gt;0x558883bd1790</title>
<path fill="none" stroke="black" d="M324.45,-1291.78C355.06,-1261.17 359.14,-1208.1 358.42,-1175.84"/>
<polygon fill="black" stroke="black" points="361.91,-1175.61 358.02,-1165.76 354.92,-1175.89 361.91,-1175.61"/>
</g>
<!-- 0x558883bd1b80 -->
<g id="node31" class="node">
<title>0x558883bd1b80</title>
<ellipse fill="#ffffff" stroke="#000000" cx="318.45" cy="-1038.65" rx="18" ry="18"/>
<text text-anchor="middle" x="318.45" y="-1034.95" font-family="Times,serif" font-size="14.00" fill="#000000">S</text>
</g>
<!-- 0x558883bd1bb0&#45;&gt;0x558883bd1b80 -->
<g id="edge30" class="edge">
<title>0x558883bd1bb0:se&#45;&gt;0x558883bd1b80</title>
<path fill="none" stroke="black" d="M310.45,-1120.44C324.15,-1106.74 325.44,-1084.46 323.7,-1066.76"/>
<polygon fill="black" stroke="black" points="327.12,-1065.89 322.31,-1056.45 320.18,-1066.83 327.12,-1065.89"/>
</g>
<!-- 0x558883bd1a90 -->
<g id="node32" class="node">
<title>0x558883bd1a90</title>
<ellipse fill="#e0f5ff" stroke="#367acc" cx="367.45" cy="-948.25" rx="18" ry="18"/>
<text text-anchor="middle" x="367.45" y="-944.55" font-family="Times,serif" font-size="14.00" fill="#4881cc">if</text>
</g>
<!-- 0x558883bd1b80&#45;&gt;0x558883bd1a90 -->
<g id="edge31" class="edge">
<title>0x558883bd1b80:sw&#45;&gt;0x558883bd1a90</title>
<path fill="none" stroke="black" d="M305.45,-1024.65C285.38,-1004.58 318.09,-978.51 343.12,-962.88"/>
<polygon fill="black" stroke="black" points="345.11,-965.76 351.88,-957.62 341.5,-959.76 345.11,-965.76"/>
</g>
<!-- 0x558883bd1820 -->
<g id="node33" class="node">
<title>0x558883bd1820</title>
<ellipse fill="#e1e1ea" stroke="#52527a" cx="354.45" cy="-855.91" rx="18.7" ry="18.7"/>
<text text-anchor="middle" x="354.45" y="-852.21" font-family="Times,serif" font-size="14.00" fill="#52527a">&gt;</text>
</g>
<!-- 0x558883bd1a90&#45;&gt;0x558883bd1820 -->
<g id="edge32" class="edge">
<title>0x558883bd1a90:sw&#45;&gt;0x558883bd1820</title>
<path fill="none" stroke="black" d="M354.45,-934.25C341.63,-921.44 342.33,-900.63 345.85,-883.82"/>
<polygon fill="black" stroke="black" points="349.28,-884.54 348.32,-873.98 342.49,-882.83 349.28,-884.54"/>
</g>
<!-- 0x558883bd1a60 -->
<g id="node36" class="node">
<title>0x558883bd1a60</title>
<ellipse fill="#e0f5ff" stroke="#367acc" cx="545.45" cy="-855.91" rx="38.19" ry="38.19"/>
<text text-anchor="middle" x="545.45" y="-852.21" font-family="Times,serif" font-size="14.00" fill="#4881cc">if&#45;else</text>
</g>
<!-- 0x558883bd1a90&#45;&gt;0x558883bd1a60 -->
<g id="edge35" class="edge">
<title>0x558883bd1a90:se&#45;&gt;0x558883bd1a60</title>
<path fill="none" stroke="black" d="M380.45,-934.25C413.16,-901.54 462.35,-880.96 498.51,-869.32"/>
<polygon fill="black" stroke="black" points="499.82,-872.58 508.34,-866.28 497.75,-865.9 499.82,-872.58"/>
</g>
<!-- 0x558883bd17c0 -->
<g id="node34" class="node">
<title>0x558883bd17c0</title>
<ellipse fill="#fff9fa" stroke="#f06292" cx="327.45" cy="-745.16" rx="18" ry="18"/>
<text text-anchor="middle" x="327.45" y="-741.46" font-family="Times,serif" font-size="14.00" fill="#f06292">n</text>
</g>
<!-- 0x558883bd1820&#45;&gt;0x558883bd17c0 -->
<g id="edge33" class="edge">
<title>0x558883bd1820:sw&#45;&gt;0x558883bd17c0</title>
<path fill="none" stroke="black" d="M341.45,-841.91C323.77,-824.22 321.91,-794.74 323.46,-773.15"/>
<polygon fill="black" stroke="black" points="326.96,-773.28 324.47,-762.98 320,-772.58 326.96,-773.28"/>
</g>
<!-- 0x558883bd17f0 -->
<g id="node35" class="node">
<title>0x558883bd17f0</title>
<ellipse fill="#fffaef" stroke="#d2691e" cx="381.45" cy="-745.16" rx="18" ry="18"/>
<text text-anchor="middle" x="381.45" y="-741.46" font-family="Times,serif" font-size="14.00" fill="#ff7f50">1</text>
</g>
<!-- 0x558883bd1820&#45;&gt;0x558883bd17f0 -->
<g id="edge34" class="edge">
<title>0x558883bd1820:se&#45;&gt;0x558883bd17f0</title>
<path fill="none" stroke="black" d="M367.45,-841.91C385.13,-824.22 386.98,-794.74 385.43,-773.15"/>
<polygon fill="black" stroke="black" points="388.9,-772.58 384.42,-762.98 381.93,-773.28 388.9,-772.58"/>
</g>
<!-- 0x558883bd1a30 -->
<g id="node37" class="node">
<title>0x558883bd1a30</title>
<ellipse fill="#ffffff" stroke="#000000" cx="518.45" cy="-745.16" rx="36.29" ry="36.29"/>
<text text-anchor="middle" x="518.45" y="-741.46" font-family="Times,serif" font-size="14.00" fill="#000000">Block</text>
</g>
<!-- 0x558883bd1a60&#45;&gt;0x558883bd1a30 -->
<g id="edge36" class="edge">
<title>0x558883bd1a60:sw&#45;&gt;0x558883bd1a30</title>
<path fill="none" stroke="black" d="M518.45,-827.91C508.77,-818.23 506.38,-804.25 507.17,-790.57"/>
<polygon fill="black" stroke="black" points="510.69,-790.58 508.32,-780.25 503.73,-789.8 510.69,-790.58"/>
</g>
<!-- 0x558883bd1b50 -->
<g id="node48" class="node">
<title>0x558883bd1b50</title>
<ellipse fill="#ffffff" stroke="#000000" cx="613.45" cy="-745.16" rx="36.29" ry="36.29"/>
<text text-anchor="middle" x="613.45" y="-741.46" font-family="Times,serif" font-size="14.00" fill="#000000">Block</text>
</g>
<!-- 0x558883bd1a60&#45;&gt;0x558883bd1b50 -->
<g id="edge47" class="edge">
<title>0x558883bd1a60:se&#45;&gt;0x558883bd1b50</title>
<path fill="none" stroke="black" d="M572.45,-827.91C583.3,-817.05 591.81,-802.74 598.19,-789.12"/>
<polygon fill="black" stroke="black" points="601.44,-790.42 602.27,-779.86 595.03,-787.6 601.44,-790.42"/>
</g>
<!-- 0x558883bd1a00 -->
<g id="node38" class="node">
<title>0x558883bd1a00</title>
<ellipse fill="#ffffff" stroke="#000000" cx="544.45" cy="-646.12" rx="18" ry="18"/>
<text text-anchor="middle" x="544.45" y="-642.42" font-family="Times,serif" font-size="14.00" fill="#000000">S</text>
</g>
<!-- 0x558883bd1a30&#45;&gt;0x558883bd1a00 -->
<g id="edge37" class="edge">
<title>0x558883bd1a30:se&#45;&gt;0x558883bd1a00</title>
<path fill="none" stroke="black" d="M544.45,-718.16C555.86,-706.75 555.61,-688.45 552.63,-673.29"/>
<polygon fill="black" stroke="black" points="556,-672.31 550.25,-663.41 549.19,-673.95 556,-672.31"/>
</g>
<!-- 0x558883bd19d0 -->
<g id="node39" class="node">
<title>0x558883bd19d0</title>
<ellipse fill="#e1e1ea" stroke="#52527a" cx="531.45" cy="-543.17" rx="40.09" ry="40.09"/>
<text text-anchor="middle" x="531.45" y="-539.47" font-family="Times,serif" font-size="14.00" fill="#52527a">return</text>
</g>
<!-- 0x558883bd1a00&#45;&gt;0x558883bd19d0 -->
<g id="edge38" class="edge">
<title>0x558883bd1a00:sw&#45;&gt;0x558883bd19d0</title>
<path fill="none" stroke="black" d="M531.45,-632.12C521.1,-621.77 518.5,-606.83 519.3,-592.2"/>
<polygon fill="black" stroke="black" points="522.79,-592.49 520.34,-582.18 515.82,-591.77 522.79,-592.49"/>
</g>
<!-- 0x558883bd19a0 -->
<g id="node40" class="node">
<title>0x558883bd19a0</title>
<ellipse fill="#e1e1ea" stroke="#52527a" cx="600.45" cy="-420.08" rx="18" ry="18"/>
<text text-anchor="middle" x="600.45" y="-416.38" font-family="Times,serif" font-size="14.00" fill="#52527a">*</text>
</g>
<!-- 0x558883bd19d0&#45;&gt;0x558883bd19a0 -->
<g id="edge39" class="edge">
<title>0x558883bd19d0:se&#45;&gt;0x558883bd19a0</title>
<path fill="none" stroke="black" d="M560.45,-513.17C578.4,-495.23 588.87,-467.9 594.56,-447.67"/>
<polygon fill="black" stroke="black" points="597.99,-448.39 597.12,-437.83 591.22,-446.63 597.99,-448.39"/>
</g>
<!-- 0x558883bd1850 -->
<g id="node41" class="node">
<title>0x558883bd1850</title>
<ellipse fill="#fff9fa" stroke="#f06292" cx="587.45" cy="-298.94" rx="18" ry="18"/>
<text text-anchor="middle" x="587.45" y="-295.24" font-family="Times,serif" font-size="14.00" fill="#f06292">n</text>
</g>
<!-- 0x558883bd19a0&#45;&gt;0x558883bd1850 -->
<g id="edge40" class="edge">
<title>0x558883bd19a0:sw&#45;&gt;0x558883bd1850</title>
<path fill="none" stroke="black" d="M587.45,-406.08C566.92,-385.56 571.65,-350.11 578.33,-325.87"/>
<polygon fill="black" stroke="black" points="581.7,-326.83 581.25,-316.25 575,-324.81 581.7,-326.83"/>
</g>
<!-- 0x558883bd1970 -->
<g id="node42" class="node">
<title>0x558883bd1970</title>
<ellipse fill="#e1e1ea" stroke="#52527a" cx="650.45" cy="-298.94" rx="26.8" ry="26.8"/>
<text text-anchor="middle" x="650.45" y="-295.24" font-family="Times,serif" font-size="14.00" fill="#52527a">call</text>
</g>
<!-- 0x558883bd19a0&#45;&gt;0x558883bd1970 -->
<g id="edge41" class="edge">
<title>0x558883bd19a0:se&#45;&gt;0x558883bd1970</title>
<path fill="none" stroke="black" d="M613.45,-406.08C623.66,-395.86 634.44,-361.95 641.71,-335.18"/>
<polygon fill="black" stroke="black" points="645.14,-335.89 644.32,-325.33 638.38,-334.1 645.14,-335.89"/>
</g>
<!-- 0x558883bd1880 -->
<g id="node43" class="node">
<title>0x558883bd1880</title>
<ellipse fill="#fff9fa" stroke="#f06292" cx="606.45" cy="-184.3" rx="28.7" ry="28.7"/>
<text text-anchor="middle" x="606.45" y="-180.6" font-family="Times,serif" font-size="14.00" fill="#f06292">fact</text>
</g>
<!-- 0x558883bd1970&#45;&gt;0x558883bd1880 -->
<g id="edge42" class="edge">
<title>0x558883bd1970:sw&#45;&gt;0x558883bd1880</title>
<path fill="none" stroke="black" d="M631.45,-278.94C616.89,-264.38 610.54,-242.35 607.87,-223.32"/>
<polygon fill="black" stroke="black" points="611.32,-222.67 606.74,-213.11 604.36,-223.44 611.32,-222.67"/>
</g>
<!-- 0x558883bd1940 -->
<g id="node44" class="node">
<title>0x558883bd1940</title>
<ellipse fill="#e1e1ea" stroke="#52527a" cx="693.45" cy="-184.3" rx="40.09" ry="40.09"/>
<text text-anchor="middle" x="693.45" y="-180.6" font-family="Times,serif" font-size="14.00" fill="#52527a">param</text>
</g>
<!-- 0x558883bd1970&#45;&gt;0x558883bd1940 -->
<g id="edge43" class="edge">
<title>0x558883bd1970:se&#45;&gt;0x558883bd1940</title>
<path fill="none" stroke="black" d="M669.45,-278.94C681.03,-267.35 687.27,-250.99 690.56,-235.17"/>
<polygon fill="black" stroke="black" points="694.08,-235.36 692.32,-224.91 687.18,-234.18 694.08,-235.36"/>
</g>
<!-- 0x558883bd1910 -->
<g id="node45" class="node">
<title>0x558883bd1910</title>
<ellipse fill="#e1e1ea" stroke="#52527a" cx="664.45" cy="-90" rx="18" ry="18"/>
<text text-anchor="middle" x="664.45" y="-86.3" font-family="Times,serif" font-size="14.00" fill="#52527a">&#45;</text>
</g>
<!-- 0x558883bd1940&#45;&gt;0x558883bd1910 -->
<g id="edge44" class="edge">
<title>0x558883bd1940:sw&#45;&gt;0x558883bd1910</title>
<path fill="none" stroke="black" d="M664.45,-154.3C654.94,-144.79 654.52,-129.92 656.67,-116.98"/>
<polygon fill="black" stroke="black" points="660.1,-117.68 658.82,-107.16 653.26,-116.18 660.1,-117.68"/>
</g>
<!-- 0x558883bd18b0 -->
<g id="node46" class="node">
<title>0x558883bd18b0</title>
<ellipse fill="#fff9fa" stroke="#f06292" cx="637.45" cy="-18" rx="18" ry="18"/>
<text text-anchor="middle" x="637.45" y="-14.3" font-family="Times,serif" font-size="14.00" fill="#f06292">n</text>
</g>
<!-- 0x558883bd1910&#45;&gt;0x558883bd18b0 -->
<g id="edge45" class="edge">
<title>0x558883bd1910:sw&#45;&gt;0x558883bd18b0</title>
<path fill="none" stroke="black" d="M651.45,-76C643.67,-68.22 639.96,-56.86 638.27,-46.32"/>
<polygon fill="black" stroke="black" points="641.73,-45.79 637.18,-36.23 634.78,-46.54 641.73,-45.79"/>
</g>
<!-- 0x558883bd18e0 -->
<g id="node47" class="node">
<title>0x558883bd18e0</title>
<ellipse fill="#fffaef" stroke="#d2691e" cx="691.45" cy="-18" rx="18" ry="18"/>
<text text-anchor="middle" x="691.45" y="-14.3" font-family="Times,serif" font-size="14.00" fill="#ff7f50">1</text>
</g>
<!-- 0x558883bd1910&#45;&gt;0x558883bd18e0 -->
<g id="edge46" class="edge">
<title>0x558883bd1910:se&#45;&gt;0x558883bd18e0</title>
<path fill="none" stroke="black" d="M677.45,-76C685.23,-68.22 688.94,-56.86 690.62,-46.32"/>
<polygon fill="black" stroke="black" points="694.12,-46.54 691.71,-36.23 687.16,-45.79 694.12,-46.54"/>
</g>
<!-- 0x558883bd1b20 -->
<g id="node49" class="node">
<title>0x558883bd1b20</title>
<ellipse fill="#ffffff" stroke="#000000" cx="641.45" cy="-646.12" rx="18" ry="18"/>
<text text-anchor="middle" x="641.45" y="-642.42" font-family="Times,serif" font-size="14.00" fill="#000000">S</text>
</g>
<!-- 0x558883bd1b50&#45;&gt;0x558883bd1b20 -->
<g id="edge48" class="edge">
<title>0x558883bd1b50:se&#45;&gt;0x558883bd1b20</title>
<path fill="none" stroke="black" d="M639.45,-718.16C650.86,-706.75 651.13,-688.45 648.67,-673.28"/>
<polygon fill="black" stroke="black" points="652.08,-672.49 646.63,-663.4 645.22,-673.91 652.08,-672.49"/>
</g>
<!-- 0x558883bd1af0 -->
<g id="node50" class="node">
<title>0x558883bd1af0</title>
<ellipse fill="#e1e1ea" stroke="#52527a" cx="630.45" cy="-543.17" rx="40.09" ry="40.09"/>
<text text-anchor="middle" x="630.45" y="-539.47" font-family="Times,serif" font-size="14.00" fill="#52527a">return</text>
</g>
<!-- 0x558883bd1b20&#45;&gt;0x558883bd1af0 -->
<g id="edge49" class="edge">
<title>0x558883bd1b20:sw&#45;&gt;0x558883bd1af0</title>
<path fill="none" stroke="black" d="M628.45,-632.12C618.01,-621.68 615.74,-606.58 616.96,-591.83"/>
<polygon fill="black" stroke="black" points="620.45,-592.11 618.3,-581.74 613.51,-591.19 620.45,-592.11"/>
</g>
<!-- 0x558883bd1ac0 -->
<g id="node51" class="node">
<title>0x558883bd1ac0</title>
<ellipse fill="#fffaef" stroke="#d2691e" cx="659.45" cy="-420.08" rx="18" ry="18"/>
<text text-anchor="middle" x="659.45" y="-416.38" font-family="Times,serif" font-size="14.00" fill="#ff7f50">1</text>
</g>
<!-- 0x558883bd1af0&#45;&gt;0x558883bd1ac0 -->
<g id="edge50" class="edge">
<title>0x558883bd1af0:se&#45;&gt;0x558883bd1ac0</title>
<path fill="none" stroke="black" d="M659.45,-513.17C676.28,-496.35 673.53,-467.95 668.29,-447.13"/>
<polygon fill="black" stroke="black" points="671.6,-445.98 665.5,-437.32 664.87,-447.9 671.6,-445.98"/>
</g>
</g>
</svg>
